<svg width="53" height="50" fill="none" xmlns="http://www.w3.org/2000/svg"><g clip-path="url(#clip0_907_498)" fill="#B3E5FF"><path d="M49.199 50H3.8L0 46.175v-2.842h21.043L22.699 45h7.594l1.656-1.667h21.043v2.842L49.19 50h.008zM4.48 48.333h44.032l2.824-2.841V45H32.628l-1.656 1.667h-8.969L20.347 45H1.657v.492l2.823 2.841zm.489-6.666H3.312v-25c0-1.842 1.483-3.334 3.313-3.334h4.969V15H6.625c-.91 0-1.656.75-1.656 1.667v25zM49.688 27.5H48.03v14.167h1.657V27.5z"/><path d="M46.375 40H6.625V16.666h4.969v1.667H8.28v20h36.44V27.5h1.656V40zm1.656-15.833h-6.625v1.666h6.625v-1.666zM36.438 8.333H16.561V10h19.875V8.333zm0 3.334H16.561v1.666h19.875v-1.666zm0 3.333H16.561v1.667h19.875V15z"/><path d="M14.906 36.667H13.25V5c0-2.758 2.228-5 4.969-5h24.015v1.667H18.22A3.322 3.322 0 0014.906 5v31.667z"/><path d="M27.328 5h-1.656v1.667h1.656V5zm-3.312 0h-1.657v1.667h1.657V5zm6.624 0h-1.656v1.667h1.657V5zm9.11 31.667h-1.656v-32.5c0-2.3 1.855-4.167 4.14-4.167 2.286 0 4.141 1.867 4.141 4.167V22.5c0 .917.745 1.667 1.656 1.667.911 0 1.657-.75 1.657-1.667V6.667H48.03V5h3.313v17.5a3.322 3.322 0 01-3.313 3.333 3.321 3.321 0 01-3.312-3.333V4.167a2.5 2.5 0 00-2.485-2.5c-1.366 0-2.484 1.125-2.484 2.5v32.5zM26.5 33.333A3.322 3.322 0 0123.187 30h1.657c0 .917.745 1.667 1.656 1.667.91 0 1.656-.75 1.656-1.667 0-.542-1.176-1.375-1.995-1.742-.497-.225-2.974-1.433-2.974-3.258s1.483-3.333 3.313-3.333 3.313 1.491 3.313 3.333h-1.657c0-.917-.745-1.667-1.656-1.667-.91 0-1.656.75-1.656 1.667 0 .542 1.176 1.375 1.995 1.742.497.225 2.974 1.433 2.974 3.258s-1.483 3.333-3.313 3.333z"/><path d="M27.328 20h-1.656v2.5h1.656V20zm0 12.5h-1.656V35h1.656v-2.5zm5.797-5.833h-1.656v1.666h1.656v-1.666zm-11.594 0h-1.656v1.666h1.656v-1.666z"/></g><defs><clipPath id="clip0_907_498"><path fill="#fff" d="M0 0h53v50H0z"/></clipPath></defs></svg>