<svg width="52" height="52" fill="none" xmlns="http://www.w3.org/2000/svg"><g clip-path="url(#clip0_907_519)" fill="#B3E5FF"><path d="M31.688 37.375H20.313a2.445 2.445 0 01-2.438-2.438v-9.75a2.445 2.445 0 012.438-2.437h11.375a2.445 2.445 0 012.437 2.438v9.75a2.445 2.445 0 01-2.438 2.437zm-11.375-13a.815.815 0 00-.813.813v9.75c0 .446.366.812.813.812h11.375a.815.815 0 00.812-.813v-9.75a.815.815 0 00-.813-.812H20.313z"/><path d="M32.5 23.563h-1.625v-3.25a4.064 4.064 0 00-4.063-4.063h-1.625a4.064 4.064 0 00-4.062 4.063v3.25H19.5v-3.25a5.694 5.694 0 015.688-5.688h1.625a5.694 5.694 0 015.687 5.688v3.25zm-6.5 6.5a1.625 1.625 0 100-3.25 1.625 1.625 0 000 3.25z"/><path d="M26.813 29.25h-1.625v4.063h1.625V29.25zM13 25.188H5.687v1.625H13v-1.625z"/><path d="M3.25 29.25a3.25 3.25 0 110-6.5 3.25 3.25 0 110 6.5zm0-4.875A1.63 1.63 0 001.625 26a1.63 1.63 0 001.625 1.625A1.63 1.63 0 004.875 26a1.63 1.63 0 00-1.625-1.625zm43.063.813H39v1.625h7.313v-1.625z"/><path d="M48.75 29.25a3.25 3.25 0 110-6.5 3.25 3.25 0 110 6.5zm0-4.875A1.63 1.63 0 0047.125 26a1.63 1.63 0 001.625 1.625A1.63 1.63 0 0050.375 26a1.63 1.63 0 00-1.625-1.625zm-5.687 15.438h-1.626v-4.876A2.445 2.445 0 0039 32.5h-3.25v-1.625H39a4.064 4.064 0 014.063 4.063v4.874z"/><path d="M42.25 45.5a3.25 3.25 0 110-6.5 3.25 3.25 0 110 6.5zm0-4.875a1.63 1.63 0 00-1.625 1.625 1.63 1.63 0 001.625 1.625 1.63 1.63 0 001.625-1.625 1.63 1.63 0 00-1.625-1.625zm-31.687-.812H8.937v-4.876A4.064 4.064 0 0113 30.875h3.25V32.5H13a2.445 2.445 0 00-2.438 2.438v4.874z"/><path d="M9.75 45.5a3.25 3.25 0 110-6.5 3.25 3.25 0 110 6.5zm0-4.875a1.63 1.63 0 00-1.625 1.625 1.63 1.63 0 001.625 1.625 1.63 1.63 0 001.625-1.625 1.63 1.63 0 00-1.625-1.625zM39 21.125h-3.25V19.5H39a2.445 2.445 0 002.438-2.438v-4.875h1.624v4.876A4.064 4.064 0 0139 21.125z"/><path d="M42.25 13a3.25 3.25 0 110-6.5 3.25 3.25 0 110 6.5zm0-4.875a1.63 1.63 0 00-1.625 1.625 1.63 1.63 0 001.625 1.625 1.63 1.63 0 001.625-1.625 1.63 1.63 0 00-1.625-1.625zm-26 13H13a4.064 4.064 0 01-4.063-4.063v-4.875h1.626v4.876A2.445 2.445 0 0013 19.5h3.25v1.625z"/><path d="M9.75 13a3.25 3.25 0 110-6.5 3.25 3.25 0 110 6.5zm0-4.875A1.63 1.63 0 008.125 9.75a1.63 1.63 0 001.625 1.625 1.63 1.63 0 001.625-1.625A1.63 1.63 0 009.75 8.125zM21.125 45.5a3.25 3.25 0 110-6.5 3.25 3.25 0 110 6.5zm0-4.875A1.63 1.63 0 0019.5 42.25a1.63 1.63 0 001.625 1.625 1.63 1.63 0 001.625-1.625 1.63 1.63 0 00-1.625-1.625z"/><path d="M21.938 44.688h-1.625V52h1.625v-7.313zm8.937.812a3.25 3.25 0 110-6.5 3.25 3.25 0 110 6.5zm0-4.875a1.63 1.63 0 00-1.625 1.625 1.63 1.63 0 001.625 1.625A1.63 1.63 0 0032.5 42.25a1.63 1.63 0 00-1.625-1.625z"/><path d="M31.688 44.688h-1.625V52h1.625v-7.313zM21.125 13a3.25 3.25 0 110-6.5 3.25 3.25 0 110 6.5zm0-4.875A1.63 1.63 0 0019.5 9.75a1.63 1.63 0 001.625 1.625A1.63 1.63 0 0022.75 9.75a1.63 1.63 0 00-1.625-1.625z"/><path d="M21.938 0h-1.625v7.313h1.625V0zm8.937 13a3.25 3.25 0 110-6.5 3.25 3.25 0 110 6.5zm0-4.875A1.63 1.63 0 0029.25 9.75a1.63 1.63 0 001.625 1.625A1.63 1.63 0 0032.5 9.75a1.63 1.63 0 00-1.625-1.625z"/><path d="M31.688 0h-1.625v7.313h1.625V0zm5.687 25.188H35.75v1.625h1.625v-1.625zm-21.125 0h-1.625v1.625h1.625v-1.625z"/></g><defs><clipPath id="clip0_907_519"><path fill="#fff" d="M0 0h52v52H0z"/></clipPath></defs></svg>