<svg width="53" height="50" fill="none" xmlns="http://www.w3.org/2000/svg"><g clip-path="url(#clip0_1022_848)" fill="#B3E5FF"><path d="M28.156 43.333H3.313V45h24.843v-1.667z"/><path d="M52.172 45h-4.14v-1.667h3.312V10H6.625v31.667A3.322 3.322 0 013.312 45C1.482 45 0 43.508 0 41.667V.833C0 .375.373 0 .828 0h14.906c.224 0 .431.092.588.242l3.073 3.091h29.473c.455 0 .828.375.828.834v2.5h-1.657V5H19.047a.853.853 0 01-.588-.242l-3.072-3.091H1.657v40c0 .916.745 1.666 1.655 1.666.911 0 1.657-.75 1.657-1.666v-32.5c0-.459.372-.834.828-.834h46.375c.455 0 .828.375.828.834v35a.833.833 0 01-.828.833z"/><path d="M43.89 50H32.298c-1.366 0-2.484-1.125-2.484-2.5v-10c0-1.375 1.117-2.5 2.484-2.5H43.89c1.366 0 2.484 1.125 2.484 2.5v10c0 1.375-1.118 2.5-2.484 2.5zM32.298 36.667a.833.833 0 00-.828.833v10c0 .458.372.833.828.833H43.89a.833.833 0 00.828-.833v-10a.833.833 0 00-.828-.833H32.297z"/><path d="M44.719 35.833h-1.657V32.5c0-2.3-1.854-4.167-4.14-4.167h-1.656c-2.286 0-4.141 1.867-4.141 4.167v3.333h-1.656V32.5c0-3.217 2.6-5.833 5.797-5.833h1.656c3.196 0 5.797 2.616 5.797 5.833v3.333zM38.094 42.5c.914 0 1.656-.746 1.656-1.667 0-.92-.742-1.666-1.656-1.666-.915 0-1.657.746-1.657 1.666 0 .92.742 1.667 1.657 1.667z"/><path d="M38.922 41.667h-1.656v4.166h1.656v-4.166zm8.281-20H10.766a.833.833 0 01-.829-.834v-6.666c0-.459.373-.834.829-.834h36.437c.456 0 .828.375.828.834v6.666a.833.833 0 01-.828.834zM11.593 20h34.782v-5H11.594v5z"/><path d="M14.906 16.667H13.25v1.666h1.656v-1.666zm3.313 0h-1.657v1.666h1.657v-1.666zm3.312 0h-1.656v1.666h1.656v-1.666zm3.313 0h-1.657v1.666h1.657v-1.666zm3.312 0H26.5v1.666h1.656v-1.666zm3.313 0h-1.657v1.666h1.657v-1.666zm3.312 0h-1.656v1.666h1.656v-1.666zM24.844 25H9.937v1.667h14.907V25zm0 3.333H9.937V30h14.907v-1.667z"/></g><defs><clipPath id="clip0_1022_848"><path fill="#fff" d="M0 0h53v50H0z"/></clipPath></defs></svg>