<svg width="64" height="52" fill="none" xmlns="http://www.w3.org/2000/svg"><g clip-path="url(#clip0_907_553)" fill="#B3E5FF"><path d="M53 27c-3.42 0-6-3.22-6-7.5 0-3.03.68-6.5 6-6.5s6 3.47 6 6.5c0 4.28-2.58 7.5-6 7.5zm0-12c-3.03 0-4 1.09-4 4.5 0 2.67 1.4 5.5 4 5.5s4-2.83 4-5.5c0-3.41-.97-4.5-4-4.5z"/><path d="M49.485 24.144l-4.999 3 1.03 1.715 4.998-3-1.029-1.715zM61 35h-6v-2h6c.3 0 1-.78 1-2v-1.42l-6.5-3.71.99-1.74 7.5 4.29V31c0 2.17-1.37 4-3 4H61zm-50-8c-3.42 0-6-3.22-6-7.5 0-3.03.68-6.5 6-6.5s6 3.47 6 6.5c0 4.28-2.58 7.5-6 7.5zm0-12c-3.03 0-4 1.09-4 4.5 0 2.67 1.4 5.5 4 5.5s4-2.83 4-5.5c0-3.41-.97-4.5-4-4.5z"/><path d="M14.513 24.134l-1.029 1.715 5 3 1.029-1.716-5-3zM9 35H3c-1.63 0-3-1.83-3-4v-2.58l7.5-4.29.99 1.74-6.5 3.71V31c0 1.22.7 2 1 2h6v2H9zm2 17H9v-9c0-8.01 4.45-9.7 9.15-11.49 1.74-.66 3.54-1.35 5.35-2.38l.99 1.74c-1.94 1.11-3.9 1.86-5.63 2.51C14.13 35.18 11 36.37 11 43v9zm44 0h-2v-9c0-6.63-3.13-7.82-7.86-9.62-1.73-.66-3.69-1.4-5.63-2.51l.99-1.74c1.81 1.03 3.61 1.72 5.35 2.38C50.56 33.3 55 34.99 55 43v9z"/><path d="M36.2 35.22l-4.2-2.1-4.2 2.1-5.09-5.09 2.81-4.22 6.47 1.08 6.47-1.08 2.81 4.22-5.09 5.09h.02zM32 30.88l3.8 1.9 2.91-2.91-1.19-1.78-5.53.92-5.53-.92-1.19 1.78 2.91 2.91 3.8-1.9H32z"/><path d="M38 23h-2v4h2v-4zm-10 0h-2v4h2v-4zm5 17h-2v2h2v-2zm0-4h-2v2h2v-2z"/><path d="M32 25c-.13 0-3.26-.01-5.45-1.11l-.11-.06c-.14-.09-3.38-2.33-4.43-9.69V14L22 10h2v3.93c.86 5.92 3.2 7.96 3.52 8.21 1.76.84 4.45.86 4.48.86.03 0 2.72-.01 4.48-.86.31-.25 2.66-2.3 3.52-8.21V10h2v4.14c-1.06 7.36-4.31 9.6-4.45 9.69l-.11.06C35.25 24.98 32.13 25 31.99 25H32zm10-15h-2c0-5.53-2.47-8-8-8-5.53 0-8 2.47-8 8h-2c0-6.64 3.36-10 10-10 6.64 0 10 3.36 10 10z"/><path d="M37.05 13.1l-10-4-3.6 1.79-.9-1.78 4.4-2.21 10 4 3.6-1.79.9 1.78-4.4 2.21zM19 44h-2v8h2v-8zm28 0h-2v8h2v-8z"/></g><defs><clipPath id="clip0_907_553"><path fill="#fff" d="M0 0h64v52H0z"/></clipPath></defs></svg>