<svg width="53" height="50" fill="none" xmlns="http://www.w3.org/2000/svg"><g clip-path="url(#clip0_1022_834)" fill="#B3E5FF"><path d="M33.953 28.333h-1.656V30h1.656v-1.667zm-3.313 3.334h-1.656v1.666h1.657v-1.666zM37.266 25h-1.657v1.667h1.657V25zm3.312-3.333h-1.656v1.666h1.656v-1.666zm-26.5 5h-1.656v1.666h1.656v-1.666zm3.312-3.334h-1.656V25h1.657v-1.667zM20.703 20h-1.656v1.667h1.656V20zm3.313-3.333h-1.657v1.666h1.657v-1.666z"/><path d="M25.672 40.833H.828A.833.833 0 010 40V15c0-.333.199-.642.513-.767a.814.814 0 01.903.184l7.693 7.741L29.473 1.667H4.141a2.5 2.5 0 00-2.485 2.5V12.5H0V4.167C0 1.867 1.855 0 4.14 0h27.33c.331 0 .637.2.762.517a.827.827 0 01-.183.908l-22.35 22.5a.821.821 0 01-1.168 0l-6.874-6.917v22.159h22.02l-6.865-6.909a.834.834 0 010-1.175l12.662-12.741-6.037-6.075 1.168-1.175 6.625 6.666a.834.834 0 010 1.175L18.567 31.675l7.693 7.742c.24.241.306.6.182.908a.83.83 0 01-.762.517l-.008-.009zM19.047 50H4.14C1.855 50 0 48.133 0 45.833V42.5h1.656v3.333a2.5 2.5 0 002.485 2.5h14.906V50z"/><path d="M48.858 50H21.53a.818.818 0 01-.762-.517.827.827 0 01.182-.908l22.36-22.5a.821.821 0 011.167 0l6.866 6.908v-22.15h-22.02l6.865 6.909a.834.834 0 010 1.175L23.526 31.658l6.037 6.075-1.168 1.175-6.625-6.666a.834.834 0 010-1.175l12.662-12.742-7.693-7.742a.842.842 0 01-.182-.908.83.83 0 01.762-.517h24.843c.456 0 .828.375.828.834v25a.823.823 0 01-.513.766.814.814 0 01-.903-.183l-7.693-7.742-20.364 20.492H48.85c1.366 0 2.484-1.125 2.484-2.5v-8.333h1.656v8.333c0 2.3-1.855 4.167-4.14 4.167l.008.008zM53 7.5h-1.656V4.167a2.5 2.5 0 00-2.485-2.5H33.953V0H48.86C51.145 0 53 1.867 53 4.167V7.5z"/></g><defs><clipPath id="clip0_1022_834"><path fill="#fff" d="M0 0h53v50H0z"/></clipPath></defs></svg>