<svg width="45" height="50" fill="none" xmlns="http://www.w3.org/2000/svg"><g clip-path="url(#clip0_1022_917)" fill="#B3E5FF"><path d="M17.069 35.938H0V0h19.715l6.664 6.71v5.79h-1.551V7.352l-5.75-5.79H1.552v32.813h15.517v1.563z"/><path d="M23.274 9.375h-1.551V12.5h1.551V9.375zm-6.207 23.438H3.102V3.125h13.965v1.563H4.653V31.25h12.414v1.563zM45 50H18.621V14.062h19.715L45 20.773V50zm-24.827-1.563h23.276V21.415l-5.75-5.789H20.174v32.813zM37.24 12.5h-1.552V5.469a.78.78 0 00-.776-.782H27.93V3.125h6.982a2.343 2.343 0 012.328 2.344V12.5zM17.068 46.875h-6.983a2.343 2.343 0 01-2.327-2.344V37.5H9.31v7.031c0 .43.349.782.775.782h6.983v1.562z"/><path d="M34.14 18.75H23.276v1.563H34.14V18.75zm0 3.125H23.276v1.563H34.14v-1.563zM40.346 25H23.277v1.563h17.07V25zm0 3.125H23.277v1.563h17.07v-1.563zm0 3.125H23.277v1.563h17.07V31.25zm0 3.125H23.277v1.563h17.07v-1.563zm0 3.125H23.277v1.563h17.07V37.5zm0 3.125H23.277v1.563h17.07v-1.563zm0 3.125H23.277v1.563h17.07V43.75zM25.604 7.813H18.62V.78h1.552v5.47h5.43v1.563zm18.621 14.062h-6.983v-7.031h1.552v5.469h5.43v1.562z"/></g><defs><clipPath id="clip0_1022_917"><path fill="#fff" d="M0 0h45v50H0z"/></clipPath></defs></svg>