<svg width="74" height="60" fill="none" xmlns="http://www.w3.org/2000/svg"><g clip-path="url(#clip0_308_1528)" fill="#B3E5FF"><path d="M61.281 31.154c-3.954 0-6.937-3.715-6.937-8.654 0-3.496.786-7.5 6.937-7.5 6.152 0 6.938 4.004 6.938 7.5 0 4.939-2.983 8.654-6.938 8.654zm0-13.846c-3.503 0-4.625 1.257-4.625 5.192 0 3.08 1.619 6.346 4.625 6.346 3.006 0 4.625-3.265 4.625-6.346 0-3.935-1.121-5.192-4.625-5.192z"/><path d="M57.218 27.859l-5.78 3.461 1.19 1.979 5.78-3.462-1.19-1.978zm13.313 12.526h-6.937v-2.308h6.937c.347 0 1.156-.9 1.156-2.308v-1.638l-7.515-4.281 1.145-2.008 8.671 4.95v2.977c0 2.504-1.584 4.616-3.468 4.616h.011zm-57.812-9.231c-3.955 0-6.938-3.715-6.938-8.654 0-3.496.787-7.5 6.938-7.5s6.937 4.004 6.937 7.5c0 4.939-2.983 8.654-6.937 8.654zm0-13.846c-3.504 0-4.625 1.257-4.625 5.192 0 3.08 1.619 6.346 4.625 6.346 3.006 0 4.625-3.265 4.625-6.346 0-3.935-1.122-5.192-4.625-5.192z"/><path d="M16.78 27.847l-1.189 1.979 5.78 3.46 1.19-1.979-5.78-3.46zm-6.374 12.538H3.47c-1.886 0-3.47-2.112-3.47-4.616v-2.977l8.672-4.95 1.145 2.008L2.3 34.13v1.64c0 1.407.81 2.307 1.156 2.307h6.938v2.308h.011zM12.719 60h-2.313V49.615c0-9.242 5.146-11.192 10.58-13.257 2.012-.762 4.093-1.558 6.186-2.746l1.145 2.007c-2.244 1.281-4.51 2.146-6.51 2.896-5.47 2.077-9.088 3.45-9.088 11.1V60zm50.875 0H61.28V49.615c0-7.65-3.619-9.023-9.088-11.1-2-.761-4.266-1.615-6.51-2.896l1.145-2.007c2.093 1.188 4.174 1.984 6.186 2.746 5.446 2.065 10.58 4.015 10.58 13.257V60z"/><path d="M41.856 40.639L37 38.215l-4.856 2.423-5.886-5.872 3.25-4.87 7.48 1.246 7.481-1.246 3.25 4.87-5.886 5.873h.023zM37 35.63l4.394 2.192 3.364-3.358-1.376-2.053-6.394 1.061-6.394-1.061-1.376 2.053 3.365 3.358 4.394-2.192H37z"/><path d="M43.938 26.539h-2.313v4.615h2.313v-4.615zm-11.563 0h-2.313v4.615h2.313v-4.615zm5.781 19.615h-2.312v2.307h2.312v-2.307zm0-4.615h-2.312v2.307h2.312V41.54z"/><path d="M37 28.846c-.15 0-3.77-.011-6.302-1.28l-.127-.07c-.162-.104-3.908-2.688-5.122-11.18v-.162l-.012-4.615h2.313v4.534c.994 6.831 3.7 9.185 4.07 9.473 2.035.97 5.145.993 5.18.993.035 0 3.145-.012 5.18-.993.358-.288 3.076-2.654 4.07-9.473V11.54h2.313v4.777c-1.226 8.492-4.984 11.076-5.146 11.18l-.127.07c-2.532 1.257-6.14 1.28-6.302 1.28H37zm11.563-17.307H46.25c0-6.381-2.856-9.231-9.25-9.231s-9.25 2.85-9.25 9.23h-2.313C25.438 3.878 29.323 0 37 0c7.678 0 11.563 3.877 11.563 11.539z"/><path d="M42.84 15.115L31.276 10.5l-4.163 2.065-1.04-2.054 5.087-2.55 11.563 4.616 4.162-2.066 1.04 2.054-5.087 2.55zM21.969 50.77h-2.313V60h2.313v-9.23zm32.375 0H52.03V60h2.313v-9.23z"/></g><defs><clipPath id="clip0_308_1528"><path fill="#fff" d="M0 0h74v60H0z"/></clipPath></defs></svg>