<svg width="60" height="60" fill="none" xmlns="http://www.w3.org/2000/svg"><g clip-path="url(#clip0_597_900)" fill="#B3E5FF"><path d="M25.313 58.125H9.374V56.25h15.938a.94.94 0 00.937-.938v-.937h1.875v.938a2.82 2.82 0 01-2.813 2.812zm13.125-14.062H21.561v-1.876h16.875a.94.94 0 00.938-.937v-.938a.94.94 0 00-.938-.937H18.75a.958.958 0 01-.731-.347.96.96 0 01-.188-.787l1.857-8.335v-2.71s-.057-1.874-.938-1.874c-1.781 0-1.875 1.566-1.875 1.875 0 .075 0 .15-.028.225l-.938 3.75a.76.76 0 01-.103.253L10.181 40.8a.948.948 0 01-.806.46H6.562v-1.876h2.279l5.278-8.803.881-3.515c.056-1.5 1.069-3.628 3.75-3.628 2.222 0 2.813 2.456 2.813 3.75V30c0 .066 0 .14-.02.206l-1.62 7.294h18.515a2.82 2.82 0 012.813 2.813v.937a2.82 2.82 0 01-2.813 2.813zM30 48.75h-5.625v-1.875H30a.94.94 0 00.938-.938V45h1.875v.938A2.82 2.82 0 0130 48.75zm-1.875 4.688H22.5v-1.876h5.625a.94.94 0 00.938-.937v-.938h1.875v.938a2.82 2.82 0 01-2.813 2.813zM33.75 5.625h-1.875v-.938a2.82 2.82 0 012.813-2.812h15.937V3.75H34.687a.94.94 0 00-.937.938v.937zm7.5 30.938c-2.222 0-2.813-2.457-2.813-3.75V30c0-.066 0-.14.02-.206l1.621-7.294H21.562a2.82 2.82 0 01-2.812-2.813v-.937a2.82 2.82 0 012.813-2.813h16.875v1.876H21.561a.94.94 0 00-.937.937v.938a.94.94 0 00.938.937H41.25c.281 0 .553.131.731.347a.959.959 0 01.188.787l-1.856 8.335v2.71s.056 1.874.937 1.874c1.781 0 1.875-1.566 1.875-1.875 0-.075 0-.15.028-.225l.938-3.75a.76.76 0 01.103-.253l5.625-9.375a.949.949 0 01.806-.46h2.813v1.876h-2.279l-5.278 8.803L45 32.934c-.056 1.5-1.069 3.629-3.75 3.629zM29.063 15h-1.875v-.938A2.82 2.82 0 0130 11.25h5.625v1.875H30a.94.94 0 00-.938.938V15zm1.875-4.687h-1.875v-.938a2.82 2.82 0 012.812-2.813H37.5v1.875h-5.625a.94.94 0 00-.938.938v.938z"/><path d="M30.938 29.063h-1.875v1.875h1.875v-1.875zm-3.75 0h-1.875v1.875h1.875v-1.875zm7.5 0h-1.876v1.875h1.876v-1.875zM6.563 60H0v-1.875h5.625v-18.75H0V37.5h6.563a.94.94 0 01.937.938v20.624a.94.94 0 01-.938.938zM60 22.5h-6.563a.94.94 0 01-.937-.938V.938A.94.94 0 0153.438 0H60v1.875h-5.625v18.75H60V22.5z"/></g><defs><clipPath id="clip0_597_900"><path fill="#fff" d="M0 0h60v60H0z"/></clipPath></defs></svg>