<svg width="64" height="60" fill="none" xmlns="http://www.w3.org/2000/svg"><g clip-path="url(#clip0_308_1557)" fill="#B3E5FF"><path d="M64 60H52v-2h10v-4c-.03-.61-1.27-3.61-2.36-6.27C57.26 41.93 54 34 54 30V20H38v10c0 2.59-2.75 11.32-3.07 12.3l-1.91-.61c.83-2.6 2.97-9.77 2.97-11.7v-12h20v12c0 3.61 3.18 11.33 5.49 16.97 1.69 4.12 2.51 6.14 2.51 7.03v6L64 60z"/><path d="M55 29H37v2h18v-2zM26 41h-2v-7H14v7h-2v-9h14v9zm8 19H0V44h50v8h-2v-6H2v12h32v2z"/><path d="M18 24h-2v9h2v-9zm4 4h-2v5h2v-5zM2 42H0V8h10v20.59l3.71 3.7-1.42 1.42L8 29.41V10H2v32zm29 4H6v-6h25v6zM8 44h21v-2H8v2zm10-8h-2v2h2v-2zm4 0h-2v2h2v-2z"/><path d="M6 22H4v2h2v-2zm0 4H4v2h2v-2zm0 4H4v2h2v-2zm3-18H1v2h8v-2zm0 4H1v2h8v-2zm46 6H37v2h18v-2zm8 32H52v2h11v-2zm-53 0H4v2h6v-2zm8 0h-6v2h6v-2zm8 0h-6v2h6v-2zm8 0h-6v2h6v-2zM26 6c-2.13 0-3.66-2.19-3.83-2.44C21.9 3.16 20.91 2 20 2c-.91 0-1.95 1.23-2.17 1.56C17.66 3.81 16.13 6 14 6s-3.66-2.19-3.83-2.44C9.9 3.16 8.91 2 8 2V0c2.13 0 3.66 2.19 3.83 2.44C12.1 2.84 13.09 4 14 4c.91 0 1.95-1.23 2.17-1.56C16.34 2.19 17.87 0 20 0s3.66 2.19 3.83 2.44C24.1 2.84 25.09 4 26 4c.91 0 1.95-1.23 2.17-1.56C28.34 2.19 29.87 0 32 0v2c-.93 0-1.95 1.23-2.17 1.56C29.66 3.81 28.13 6 26 6zM6 4H4c0-2.21 1.79-4 4-4v2c-1.1 0-2 .9-2 2zm0 0H4v2h2V4zm52 12c-2.13 0-3.66-2.19-3.83-2.44C53.9 13.16 52.91 12 52 12v-2c2.13 0 3.66 2.19 3.83 2.44.27.4 1.26 1.56 2.17 1.56.91 0 1.95-1.23 2.17-1.56.17-.25 1.7-2.44 3.83-2.44v2c-.93 0-1.95 1.23-2.17 1.56-.17.25-1.7 2.44-3.83 2.44zm-8-2h-2c0-2.21 1.79-4 4-4v2c-1.1 0-2 .9-2 2zm0 0h-2v2h2v-2z"/><path d="M52 10h-6v2h6v-2zm-8 4h-2c0-2.21 1.79-4 4-4v2c-1.1 0-2 .9-2 2zm0 0h-2v2h2v-2zm6 46H36v-6h14v6zm-12-2h10v-2H38v2z"/></g><defs><clipPath id="clip0_308_1557"><path fill="#fff" d="M0 0h64v60H0z"/></clipPath></defs></svg>