<svg width="60" height="54" fill="none" xmlns="http://www.w3.org/2000/svg"><g clip-path="url(#clip0_597_959)" fill="#B3E5FF"><path d="M55.697 54H4.303L0 49.727v-3.175h23.822l1.875 1.862h8.597l1.875-1.862H59.99v3.175L55.688 54h.009zM5.072 52.138h49.847l3.197-3.175v-.55H36.938l-1.876 1.863H24.91l-1.875-1.862H1.875v.55l3.197 3.174zm.553-7.448H3.75V16.759c0-2.058 1.678-3.725 3.75-3.725h11.25v1.862H7.5a1.874 1.874 0 00-1.875 1.863v27.93zm50.625 0h-1.875V16.759a1.874 1.874 0 00-1.875-1.863H41.25v-1.862H52.5c2.072 0 3.75 1.667 3.75 3.725v27.93z"/><path d="M15 42.828H7.5v-26.07h13.125v1.863H9.375v22.344H15v1.862zm19.688-11.173h-6.563v1.862h6.563v-1.862zm0-14.896h-6.563v1.862h6.563v-1.862z"/><path d="M52.5 42.828H16.875V37.24h26.25v1.862H18.75v1.862h31.875V18.621h-11.25v-1.862H52.5v26.069z"/><path d="M22.5 38.172h-1.875V35.93l3.75-3.724V18.072l-3.75-3.725v-3.175h4.688V8.38h1.875v4.656H22.5v.549l3.75 3.724v15.66l-3.75 3.724v1.48zm16.875 0H37.5v-1.48l-3.75-3.724v-15.66l3.75-3.724v-.55h-8.438v-1.862h10.313v3.175l-3.75 3.724v14.133l3.75 3.725v2.243z"/><path d="M34.688 8.38h-1.876v3.723h1.876V8.38zM37.5 5.586h-5.625V1.862h-3.75v3.724H22.5V3.724h3.75V0h7.5v3.724h3.75v1.862z"/><path d="M38.822 9.31H21.178L18.75 6.9V0h5.625v1.862h-3.75v4.274l1.322 1.312h16.106l1.322-1.312V1.862h-3.75V0h5.625v6.899L38.822 9.31zm-7.884 13.966h-1.875v1.862h1.875v-1.862zm0-3.724h-1.875v1.862h1.875v-1.862zm0 7.448h-1.875v1.862h1.875V27z"/></g><defs><clipPath id="clip0_597_959"><path fill="#fff" d="M0 0h60v54H0z"/></clipPath></defs></svg>