<svg width="48" height="48" fill="none" xmlns="http://www.w3.org/2000/svg"><g opacity=".6" clip-path="url(#clip0_908_1050)" fill="#0060A9"><path d="M15 43.5h-3V45h3v-1.5zM9.75 3h-1.5v1.5h1.5V3zm9 0h-7.5v1.5h7.5V3zm7.5 3H.75v1.5h25.5V6zm0 34.5H.75V42h25.5v-1.5z"/><path d="M24 48H3a3 3 0 01-3-3V3a3 3 0 013-3h21a3 3 0 013 3v31.5h-1.5V3c0-.825-.675-1.5-1.5-1.5H3c-.825 0-1.5.675-1.5 1.5v42c0 .825.675 1.5 1.5 1.5h21c.825 0 1.5-.675 1.5-1.5v-6H27v6a3 3 0 01-3 3zm14.25-24a.743.743 0 01-.413-.128c-.382-.255-9.337-6.307-9.337-13.372V6c0-2.07 1.68-3.75 3.75-3.75v1.5A2.257 2.257 0 0030 6v4.5c0 5.467 6.517 10.575 8.25 11.835 1.733-1.26 8.25-6.368 8.25-11.835V6a2.257 2.257 0 00-2.25-2.25v-1.5C46.32 2.25 48 3.93 48 6v4.5c0 7.073-8.955 13.117-9.337 13.372a.762.762 0 01-.413.128z"/><path d="M34.5 6H33c-.825 0-1.5-.675-1.5-1.5v-3c0-.825.675-1.5 1.5-1.5h1.5c.825 0 1.5.675 1.5 1.5v3c0 .825-.675 1.5-1.5 1.5zM33 1.5v3h1.5v-3H33zM43.5 6H42c-.825 0-1.5-.675-1.5-1.5v-3c0-.825.675-1.5 1.5-1.5h1.5c.825 0 1.5.675 1.5 1.5v3c0 .825-.675 1.5-1.5 1.5zM42 1.5v3h1.5v-3H42zM38.25 18c-5.377 0-9.75-3.367-9.75-7.5H30c0 3.307 3.697 6 8.25 6s8.25-2.693 8.25-6H48c0 4.133-4.373 7.5-9.75 7.5zM13.5 21a5.256 5.256 0 01-5.25-5.25 5.256 5.256 0 015.25-5.25 5.256 5.256 0 015.25 5.25A5.256 5.256 0 0113.5 21zm0-9c-2.07 0-3.75 1.68-3.75 3.75 0 2.07 1.68 3.75 3.75 3.75 2.07 0 3.75-1.68 3.75-3.75 0-2.07-1.68-3.75-3.75-3.75z"/><path d="M13.5 17.25a1.5 1.5 0 100-3 1.5 1.5 0 000 3zM36 45.75a3 3 0 01-3-3V30c0-.825-.675-1.5-1.5-1.5S30 29.175 30 30v4.5a3 3 0 01-3 3H7.5a3 3 0 110-6h12c.825 0 1.5-.675 1.5-1.5s-.675-1.5-1.5-1.5h-3.75a3 3 0 01-3-3v-3h1.5v3c0 .825.675 1.5 1.5 1.5h3.75a3 3 0 110 6h-12c-.825 0-1.5.675-1.5 1.5S6.675 36 7.5 36H27c.825 0 1.5-.675 1.5-1.5V30a3 3 0 116 0v12.75c0 .825.675 1.5 1.5 1.5s1.5-.675 1.5-1.5v-19.5H39v19.5a3 3 0 01-3 3z"/></g><defs><clipPath id="clip0_908_1050"><path fill="#fff" d="M0 0h48v48H0z"/></clipPath></defs></svg>