<svg width="48" height="48" fill="none" xmlns="http://www.w3.org/2000/svg"><g opacity=".6" clip-path="url(#clip0_908_950)" fill="#0060A9"><path d="M40.615 48H0V5.25h7.385v1.5H1.846V46.5H38.77V6.75h-5.538v-1.5h7.384V48z"/><path d="M31.384 9.75H9.23v-6h5.613C15.286 1.627 17.566 0 20.307 0c2.742 0 5.022 1.627 5.465 3.75h5.612v6zm-20.307-1.5h18.461v-3H24V4.5c0-1.658-1.653-3-3.693-3s-3.692 1.342-3.692 3v.75h-5.538v3z"/><path d="M21.23 3.75h-1.845v1.5h1.846v-1.5zM36.922 42H3.692V6h1.846v34.5h29.538V6h1.846v36z"/><path d="M12.922 12.75h-1.846v4.5h1.846v-4.5z"/><path d="M14.769 14.25H9.23v1.5h5.539v-1.5zm-3.692 4.5H9.23v1.5h1.847v-1.5zm20.306 0H12.922v1.5h18.461v-1.5zm-20.306 3H9.23v1.5h1.847v-1.5zm20.306 0H12.922v1.5h18.461v-1.5zm-20.306 3H9.23v1.5h1.847v-1.5zm20.306 0H12.922v1.5h18.461v-1.5zm-20.306 3H9.23v1.5h1.847v-1.5zm20.306 0H12.922v1.5h18.461v-1.5zm-20.306 3H9.23v1.5h1.847v-1.5zm20.306 0H12.922v1.5h18.461v-1.5zm.002 4.5H29.54v1.5h1.846v-1.5zm-3.692 0H20.31v1.5h7.384v-1.5zm3.691-18H16.615v-4.5h14.77v4.5zm-12.923-1.5h11.077v-1.5H18.461v1.5zM48 48h-5.54V7.32l1.275-2.07h2.99L48 7.32V48zm-3.693-1.5h1.846V7.68l-.572-.93h-.702l-.572.93V46.5z"/><path d="M46.153 3.75h-1.846V6h1.846V3.75zm.924 7.5h-3.692v1.5h3.692v-1.5zm0 3h-3.692v1.5h3.692v-1.5zm0 3h-3.692v1.5h3.692v-1.5zm0 26.25h-3.692V45h3.692v-1.5z"/></g><defs><clipPath id="clip0_908_950"><path fill="#fff" d="M0 0h48v48H0z"/></clipPath></defs></svg>