<svg width="48" height="48" fill="none" xmlns="http://www.w3.org/2000/svg"><g opacity=".6" clip-path="url(#clip0_908_988)" fill="#0060A9"><path d="M35.143 13.5H7.715V15h27.428v-1.5zm-12.001 18h-1.714v2.25h1.714V31.5zM22.287 3h-1.715v4.5h1.715V3z"/><path d="M24 4.5h-5.143V6H24V4.5z"/><path d="M32.572 34.5H10.286c-1.894 0-3.429-1.343-3.429-3V3c0-1.657 1.535-3 3.429-3h22.286C34.466 0 36 1.343 36 3v28.5c0 1.657-1.534 3-3.428 3zm-22.286-33c-.943 0-1.714.675-1.714 1.5v28.5c0 .825.771 1.5 1.714 1.5h22.286c.943 0 1.714-.675 1.714-1.5V3c0-.825-.771-1.5-1.714-1.5H10.286z"/><path d="M13.714 19.5h-3.429V21h3.429v-1.5zm0-3h-3.429V18h3.429v-1.5zm0 6h-3.429V24h3.429v-1.5zm0 3h-3.429V27h3.429v-1.5zm0 3h-3.429V30h3.429v-1.5zM41.142 0h-1.714v48h1.714V0z"/><path d="M48 9H5.143v1.5H48V9z"/><path d="M46.287 0h-1.715v48h1.715V0zM16.286 48c-2.975 0-4.252-1.343-5.375-2.52-1.054-1.11-1.885-1.98-4.054-1.98-2.837 0-5.143 2.017-5.143 4.5H0c0-3.307 3.077-6 6.857-6 2.974 0 4.252 1.343 5.374 2.52 1.055 1.11 1.886 1.98 4.055 1.98 2.837 0 5.143-2.017 5.143-4.5v-6h1.714v6c0 3.307-3.077 6-6.857 6z"/><path d="M28.286 48H26.57v-3c0-1.657-1.534-3-3.428-3C20.306 42 18 39.983 18 37.5v-6h1.714v6c0 1.657 1.535 3 3.429 3 2.837 0 5.143 2.017 5.143 4.5v3zm17.142-36h-5.143v1.5h5.143V12zm0-6h-5.143v1.5h5.143V6z"/></g><defs><clipPath id="clip0_908_988"><path fill="#fff" d="M0 0h48v48H0z"/></clipPath></defs></svg>