<svg width="48" height="48" fill="none" xmlns="http://www.w3.org/2000/svg"><g opacity=".6" clip-path="url(#clip0_908_1015)" fill="#0060A9"><path d="M6.907 28.819l-.31 1.565 14.253 3.201.31-1.566-14.253-3.2z"/><path d="M44.25 43.2h-18c-3.308 0-6-2.872-6-6.4v-8h1.5v8c0 2.648 2.017 4.8 4.5 4.8h18c1.237 0 2.25-1.08 2.25-2.4 0-5.944-7.193-12-14.25-12H6.75v-1.6h25.5C40.2 25.6 48 32.336 48 39.2c0 2.208-1.68 4-3.75 4z"/><path d="M47.25 38.4h-9c-3.307 0-6-2.872-6-6.4v-5.6h1.5V32c0 2.648 2.017 4.8 4.5 4.8h9v1.6zm-19.5-8h-1.5v4.8h1.5v-4.8z"/><path d="M29.25 32h-4.5v1.6h4.5V32zm-25.5 0C1.68 32 0 30.208 0 28s1.68-4 3.75-4c2.07 0 3.75 1.792 3.75 4s-1.68 4-3.75 4zm0-6.4c-1.237 0-2.25 1.08-2.25 2.4 0 1.32 1.013 2.4 2.25 2.4S6 29.32 6 28c0-1.32-1.013-2.4-2.25-2.4zM28.5 44.8H27v2.4h1.5v-2.4zm13.5 0h-1.5v2.4H42v-2.4z"/><path d="M46.5 46.4h-24V48h24v-1.6zM48 20.8H25.5v1.6H48v-1.6zm-25.5 0H0v1.6h22.5v-1.6z"/><path d="M26.25 24h-1.5v-3.2h-1.5V24h-1.5v-4.8h4.5V24zM24.705 5.872l-1.41-.544C23.835 3.728 25.717 0 31.5 0c3.045 0 5.902 1.28 8.032 3.6L38.46 4.72c-1.853-2.016-4.32-3.12-6.968-3.12-4.657 0-6.255 2.672-6.795 4.272h.008zM14.25 15.2h-1.5c0-4.408 3.367-8 7.5-8 1.845 0 3.622.72 5.003 2.04l-.998 1.192C23.153 9.384 21.735 8.8 20.25 8.8c-3.308 0-6 2.872-6 6.4z"/><path d="M42 15.2v-1.6c2.483 0 4.5-2.152 4.5-4.8C46.5 6.152 44.483 4 42 4s-4.5 2.152-4.5 4.8H36c0-3.528 2.693-6.4 6-6.4s6 2.872 6 6.4c0 3.528-2.693 6.4-6 6.4z"/><path d="M42 13.6H31.5v1.6H42v-1.6zm-12 0h-3v1.6h3v-1.6zM7.5 16.8h-3v1.6h3v-1.6z"/><path d="M4.5 18.4c-2.482 0-4.5-2.152-4.5-4.8 0-2.456 1.74-4.488 3.975-4.768C4.995 6.328 7.44 4.8 10.5 4.8c3.322 0 6 2.624 6 4.8H15c0-1.12-1.852-3.2-4.5-3.2-2.647 0-4.62 1.32-5.287 3.456l-.173.544H4.5c-1.658 0-3 1.432-3 3.2 0 1.768 1.342 3.2 3 3.2v1.6zm8.25 20h-9V40h9v-1.6zm6 3.2H8.25v1.6h10.5v-1.6zm-1.5-3.2h-3V40h3v-1.6zM4.5 27.2H3v1.6h1.5v-1.6z"/></g><defs><clipPath id="clip0_908_1015"><path fill="#fff" d="M0 0h48v48H0z"/></clipPath></defs></svg>