<svg width="48" height="48" fill="none" xmlns="http://www.w3.org/2000/svg"><g opacity=".6" clip-path="url(#clip0_908_919)" fill="#0060A9"><path d="M38.783 37.72l-1.06 1.06 5.25 5.25 1.06-1.06-5.25-5.25z"/><path d="M38.25 39a.75.75 0 01-.353-.09l-14.25-7.5a.807.807 0 01-.18-.135l-19.5-19.492 1.057-1.058 19.418 19.417 12.007 6.323-6.322-12.008-19.41-19.425 1.057-1.057 19.5 19.5a.807.807 0 01.135.18l7.5 14.25a.751.751 0 01-.135.877.755.755 0 01-.532.218h.007zm6 9a.768.768 0 01-.533-.218l-2.25-2.25a.747.747 0 010-1.057l3-3a.747.747 0 011.058 0l2.25 2.25a.747.747 0 010 1.057l-3 3a.736.736 0 01-.533.218h.008zm-1.193-3l1.193 1.193 1.942-1.943L45 43.057 43.057 45z"/><path d="M20.476 13.716l-6.751 6.752 1.06 1.06 6.751-6.75-1.06-1.062zM9.223 37.72l-5.25 5.25 1.06 1.06 5.25-5.25-1.06-1.06zM36.217 3.974L24.97 15.222l1.06 1.061L37.278 5.035l-1.06-1.061z"/><path d="M9.75 39a.768.768 0 01-.532-.218.763.763 0 01-.135-.884l6-11.25 1.327.704-4.837 9.076 9.075-4.838.705 1.327-11.25 6a.747.747 0 01-.353.09V39zm33.215-28.276L31.717 21.972l1.06 1.06 11.249-11.248-1.06-1.06zM3.75 48a.768.768 0 01-.533-.218l-3-3a.747.747 0 010-1.057l2.25-2.25a.747.747 0 011.058 0l3 3a.747.747 0 010 1.057l-2.25 2.25a.736.736 0 01-.533.218h.008zm-1.943-3.75l1.943 1.943L4.942 45 3 43.057 1.807 44.25z"/><path d="M27.535 13.721l-1.06 1.06 6.75 6.752 1.061-1.06-6.75-6.752zm2.687 9.745l-6.751 6.752 1.06 1.06 6.752-6.75-1.061-1.062zm-6.748-6.75l-6.751 6.752 1.06 1.06 6.751-6.75-1.06-1.062zM3 13.5a.768.768 0 01-.533-.218l-2.25-2.25a.747.747 0 010-1.057L9.967.217a.747.747 0 011.058 0l2.25 2.25a.747.747 0 010 1.058l-9.75 9.75a.736.736 0 01-.533.217L3 13.5zm-1.193-3L3 11.692 11.692 3 10.5 1.807 1.807 10.5z"/><path d="M4.28 6.967l-1.061 1.06 2.248 2.25 1.061-1.061-2.249-2.249zm3.75-3.743l-1.061 1.06 2.248 2.249 1.061-1.06-2.249-2.25zM45 13.5a.768.768 0 01-.533-.217l-9.75-9.75a.747.747 0 010-1.058l2.25-2.25a.747.747 0 011.058 0l9.75 9.75a.747.747 0 010 1.058l-2.25 2.25a.736.736 0 01-.533.217H45zM36.307 3L45 11.693l1.192-1.193L37.5 1.807 36.307 3z"/><path d="M39.97 3.223L37.72 5.47l1.061 1.061 2.249-2.249-1.06-1.06zm3.75 3.75L41.47 9.22l1.061 1.061 2.249-2.249-1.06-1.06zM14.033 30.97l-1.06 1.06 3.001 3.002 1.061-1.061-3.002-3.002zm19.934-.001l-3.002 3.002 1.06 1.06 3.002-3.002-1.06-1.06z"/></g><defs><clipPath id="clip0_908_919"><path fill="#fff" d="M0 0h48v48H0z"/></clipPath></defs></svg>