<svg width="33" height="40" fill="none" xmlns="http://www.w3.org/2000/svg"><g clip-path="url(#clip0_597_1114)" fill="#E18A04"><path d="M32.77 4.501c-2.625-2.65-7.604-1.408-12.878-.101-5.064 1.259-10.296 2.56-12.73.101a.782.782 0 00-1.12 0 .8.8 0 000 1.131c3.068 3.099 8.744 1.685 14.23.325 4.446-1.104 9.034-2.245 11.146-.533v17.29c-2.883-1.46-7.065-.298-11.452.918-4.964 1.381-10.096 2.805-12.804.07a.782.782 0 00-1.12 0 .8.8 0 000 1.13c1.484 1.499 3.4 2.032 5.544 2.032 2.709 0 5.782-.853 8.797-1.69 4.678-1.302 9.102-2.529 11.267-.342.227.23.565.299.86.176a.802.802 0 00.492-.741v-19.2a.803.803 0 00-.232-.566zM5.544 38.4H.792a.795.795 0 00-.792.8c0 .443.354.8.792.8h4.752a.795.795 0 00.792-.8c0-.443-.354-.8-.792-.8zM1.847 1.6h.528v34.133c0 .443.353.8.792.8a.795.795 0 00.792-.8V1.6h.528a.795.795 0 00.792-.8c0-.443-.354-.8-.792-.8h-2.64a.795.795 0 00-.792.8c0 .443.353.8.792.8z"/><path d="M17.953 18.133c.2 0 .407-.08.56-.234L23 13.365a.8.8 0 000-1.13.782.782 0 00-1.12 0l-3.928 3.968-1.99-2.011a.782.782 0 00-1.12 0 .8.8 0 000 1.13l2.55 2.577a.792.792 0 00.56.234z"/></g><defs><clipPath id="clip0_597_1114"><path fill="#fff" d="M0 0h33v40H0z"/></clipPath></defs></svg>