<svg width="172" height="46" fill="none" xmlns="http://www.w3.org/2000/svg"><path d="M20.78.5c2.701 0 5.017.462 6.91 1.406 1.878.93 3.41 2.188 4.578 3.762 1.161 1.565 1.99 3.393 2.489 5.474l.147.616h-.015c.404 1.94.605 4.207.605 6.79v24.323c0 .327-.081.626-.266.888l-.004.006c-.188.258-.464.44-.77.58l-.005.002c-.326.145-.75.24-1.239.306l-.005.001c-.498.062-1.08.092-1.83.092-.749 0-1.374-.03-1.873-.092h-.005c-.49-.067-.908-.162-1.237-.306l-.003-.001c-.308-.137-.588-.325-.775-.582l-.003-.006a1.505 1.505 0 01-.266-.888V19.523c0-2.255-.175-4.036-.515-5.368v0c-.343-1.35-.832-2.488-1.473-3.435a6.241 6.241 0 00-2.437-2.137c-.87-.43-1.87-.68-3.01-.735l-.499-.013h-2.564c-1.35 0-2.515.256-3.509.748a6.242 6.242 0 00-2.436 2.135h0c-.558.83-1.005 1.81-1.338 2.942l-.136.495c-.34 1.327-.515 3.112-.515 5.368v23.348c0 .327-.081.626-.265.888l-.004.006c-.188.258-.464.44-.77.58l-.005.002c-.326.145-.751.24-1.24.306l-.005.001c-.5.062-1.154.092-1.873.092-.72 0-1.331-.03-1.83-.092h-.005c-.49-.067-.907-.162-1.236-.306l-.003-.001c-.307-.137-.588-.325-.774-.582l-.005-.006A1.504 1.504 0 01.5 42.87V18.55c0-2.862.245-5.336.742-7.407.495-2.082 1.324-3.91 2.49-5.475 1.172-1.573 2.697-2.831 4.576-3.76C10.202.961 12.518.5 15.218.5h5.562z" fill="#0060A9" stroke="#0060A9"/><g clip-path="url(#clip0_1001_3)" fill="#0060A9"><path d="M72.252 21.165a3.611 3.611 0 00-1.359-1.017c-.552-.254-1.237-.375-2.033-.375h-1.348c-.796 0-1.48.132-2.033.375-.553.255-1.017.597-1.36 1.017-.342.42-.596.928-.74 1.492-.143.552-.22 1.215-.22 1.978v6.364c0 .122.032.232.11.332a.776.776 0 00.276.199c.1.044.221.066.387.088.287.033.806.033 1.094 0 .166-.022.287-.044.386-.088a.561.561 0 00.387-.52V24.9c0-.564.044-1.028.144-1.36.088-.33.22-.618.398-.85a1.73 1.73 0 01.64-.52c.255-.11.542-.176.874-.187h.563c.365 0 .685.066.961.188.266.121.475.287.641.508.177.232.31.52.398.85.1.343.144.796.144 1.36v6.11c0 .122.033.232.11.332a.776.776 0 00.276.199c.1.044.221.066.387.088.144.011.32.022.553.022.232 0 .397 0 .541-.022.166-.022.287-.044.387-.088a.561.561 0 00.387-.52v-6.364c0-.763-.078-1.426-.221-1.978a3.944 3.944 0 00-.74-1.492l.01-.011z"/><path d="M71.899 31.905c-.232 0-.431 0-.586-.033a2.255 2.255 0 01-.464-.1 1.105 1.105 0 01-.398-.276.815.815 0 01-.165-.497v-6.11c0-.542-.045-.973-.133-1.293a2.21 2.21 0 00-.354-.763 1.235 1.235 0 00-.53-.42c-.232-.11-.52-.165-.85-.165h-.564c-.288 0-.542.066-.763.154-.22.1-.398.244-.541.431-.155.21-.277.465-.354.763-.088.31-.133.751-.133 1.293v6.11a.793.793 0 01-.165.497c-.1.122-.221.21-.387.288a2.049 2.049 0 01-.464.11 6.64 6.64 0 01-1.15 0 2.256 2.256 0 01-.463-.1 1.105 1.105 0 01-.398-.276.815.815 0 01-.166-.497v-6.364c0-.785.077-1.481.232-2.044.155-.597.42-1.139.796-1.592.375-.464.873-.828 1.458-1.094.586-.265 1.304-.397 2.144-.397h1.348c.84 0 1.558.132 2.155.408a3.975 3.975 0 011.458 1.094c.365.453.641.984.796 1.591.154.564.232 1.26.232 2.045v6.364a.793.793 0 01-.166.498c-.1.121-.22.21-.387.287a1.91 1.91 0 01-.464.11 4.129 4.129 0 01-.574.034v-.056zm-3.48-10.199c.408 0 .761.067 1.07.21.3.133.553.343.752.597.2.265.343.586.442.94.1.364.155.839.155 1.436v6.11c0 .055.022.11.055.155a.394.394 0 00.166.11.94.94 0 00.32.067c.266.033.74.033 1.028 0 .133-.022.243-.044.32-.067a.394.394 0 00.166-.11.254.254 0 00.044-.155v-6.364c0-.74-.066-1.382-.21-1.912a3.77 3.77 0 00-.685-1.381c-.32-.398-.751-.707-1.26-.94-.519-.232-1.16-.353-1.922-.353h-1.348c-.763 0-1.403.122-1.923.354a3.43 3.43 0 00-1.26.939c-.32.398-.552.862-.684 1.38-.144.52-.21 1.161-.21 1.913v6.364c0 .055.022.11.055.155a.394.394 0 00.166.11c.066.034.176.045.309.067a5.33 5.33 0 001.028 0c.132-.022.243-.044.32-.067a.394.394 0 00.166-.11.253.253 0 00.044-.155v-6.11c0-.597.055-1.072.155-1.437.1-.364.243-.674.442-.939a2.02 2.02 0 01.751-.608 2.52 2.52 0 01.984-.21h.574l-.01.011zm24.297-.828a4.715 4.715 0 00-1.745-1.227c-.697-.276-1.503-.42-2.42-.42-.918 0-1.802.155-2.52.464a4.991 4.991 0 00-1.823 1.315 5.438 5.438 0 00-1.083 2.011 8.6 8.6 0 00-.353 2.509c0 .906.11 1.779.331 2.519a5.095 5.095 0 001.039 1.934c.464.53 1.06.939 1.757 1.226.685.276 1.502.42 2.42.42.917 0 1.79-.155 2.508-.475a5.05 5.05 0 001.823-1.326 5.621 5.621 0 001.094-2.011 8.239 8.239 0 00.365-2.508c0-.907-.11-1.768-.343-2.509a5.416 5.416 0 00-1.039-1.933l-.01.01zm-1.403 6.22c-.121.487-.31.907-.564 1.25a2.541 2.541 0 01-.95.784c-.387.188-.85.287-1.392.287-.586 0-1.083-.1-1.47-.31a2.46 2.46 0 01-.917-.828c-.232-.354-.397-.785-.508-1.26a8.207 8.207 0 01-.155-1.602c0-.564.067-1.138.188-1.635.122-.486.31-.906.564-1.249a2.52 2.52 0 01.939-.796c.387-.187.85-.287 1.392-.287.586 0 1.083.1 1.47.31.386.21.685.475.906.828.232.365.398.785.497 1.271a8.1 8.1 0 01.155 1.591c0 .597-.067 1.15-.188 1.647h.033z"/><path d="M88.319 31.905c-.95 0-1.802-.143-2.52-.43a4.848 4.848 0 01-1.856-1.294 5.466 5.466 0 01-1.094-2.033c-.232-.762-.343-1.635-.343-2.596 0-.962.122-1.801.365-2.586.254-.807.63-1.514 1.138-2.11a5.195 5.195 0 011.923-1.393c.751-.32 1.635-.486 2.63-.486.994 0 1.8.144 2.519.431.74.298 1.36.74 1.856 1.293a5.648 5.648 0 011.105 2.033c.232.762.354 1.635.354 2.597 0 .961-.122 1.8-.376 2.585a5.863 5.863 0 01-1.149 2.1c-.508.597-1.16 1.06-1.923 1.392-.751.331-1.635.497-2.618.497h-.011zm.232-12.387c-.918 0-1.724.144-2.41.442a4.441 4.441 0 00-1.712 1.25 5.223 5.223 0 00-1.028 1.91c-.232.73-.342 1.548-.342 2.42 0 .874.11 1.724.32 2.443.21.718.542 1.326.984 1.834.442.497.994.884 1.646 1.149.652.265 1.437.398 2.32.398.885 0 1.713-.155 2.398-.453a4.718 4.718 0 001.724-1.249 5.51 5.51 0 001.039-1.911c.232-.73.342-1.547.342-2.42s-.11-1.713-.331-2.431a5.225 5.225 0 00-.984-1.834 4.387 4.387 0 00-1.646-1.15c-.652-.265-1.436-.398-2.31-.398h-.01zm-.133 10.177c-.63 0-1.171-.11-1.591-.342a2.714 2.714 0 01-1.017-.917c-.254-.387-.43-.851-.541-1.36a7.876 7.876 0 01-.166-1.657c0-.586.066-1.182.199-1.702.133-.508.331-.972.608-1.348a2.867 2.867 0 011.038-.884c.42-.21.929-.309 1.514-.309.63 0 1.171.11 1.591.343.431.232.763.53 1.017.928.243.386.43.85.541 1.359.11.508.166 1.072.166 1.646 0 .619-.066 1.194-.188 1.713-.132.52-.331.972-.607 1.337-.277.376-.63.663-1.05.873-.431.21-.94.31-1.514.31v.01zm.055-7.966c-.497 0-.928.088-1.27.254a2.254 2.254 0 00-.84.707c-.232.32-.409.718-.52 1.16a6.295 6.295 0 00-.187 1.57c0 .574.055 1.07.154 1.546.089.442.254.84.464 1.171.2.31.475.553.818.73.343.187.796.276 1.337.276.486 0 .917-.089 1.27-.254.343-.166.63-.398.84-.707.233-.31.41-.697.52-1.15a6.403 6.403 0 00.177-1.58c0-.541-.056-1.06-.155-1.536a3.67 3.67 0 00-.464-1.182 2.175 2.175 0 00-.807-.74c-.342-.188-.795-.277-1.337-.277v.012zm24.906-.641a4.09 4.09 0 00-1.447-1.337c-.597-.332-1.315-.509-2.144-.509-.331 0-.663.033-.972.1-.31.066-.619.177-.928.331a5.407 5.407 0 00-.928.575c-.155.121-.321.254-.487.398v-5.802a.606.606 0 00-.088-.32.63.63 0 00-.276-.22 1.107 1.107 0 00-.376-.09 5.431 5.431 0 00-1.039 0 1.443 1.443 0 00-.375.09.564.564 0 00-.288.231.563.563 0 00-.077.31v15.988c0 .11.022.21.066.288a.49.49 0 00.288.243c.099.033.21.066.342.077.254.033.663.033.895 0a1.46 1.46 0 00.332-.088.546.546 0 00.276-.21.528.528 0 00.099-.32v-.652c.144.143.299.265.431.386.299.243.597.453.884.608.31.166.619.287.928.354.31.077.652.11 1.017.11.785 0 1.492-.155 2.099-.442a4.266 4.266 0 001.558-1.293c.42-.552.73-1.226.94-2 .21-.762.32-1.635.32-2.596 0-.796-.088-1.57-.243-2.288a5.816 5.816 0 00-.796-1.922h-.011zm-1.701 5.878a4.008 4.008 0 01-.453 1.249 2.43 2.43 0 01-.774.861c-.641.431-1.657.442-2.519-.154-.453-.32-.939-.785-1.448-1.392v-4.1c.288-.354.553-.652.796-.895a5.38 5.38 0 01.762-.619c.243-.154.464-.265.685-.32.652-.188 1.36-.1 1.813.22.309.222.563.51.74.863.188.364.331.806.409 1.293.077.497.121 1.027.121 1.558 0 .486-.044.972-.143 1.436h.011z"/><path d="M109.512 31.905c-.387 0-.751-.044-1.072-.121a4.358 4.358 0 01-.994-.376 5.456 5.456 0 01-.906-.619v.033a.784.784 0 01-.144.476.931.931 0 01-.409.32c-.11.044-.243.077-.398.1a4.754 4.754 0 01-.972 0 1.907 1.907 0 01-.398-.1.808.808 0 01-.442-.387.872.872 0 01-.088-.42V14.845a.93.93 0 01.121-.454.85.85 0 01.409-.342c.133-.055.276-.088.453-.11a6.16 6.16 0 011.105 0c.177.021.321.055.453.11a.849.849 0 01.531.796v5.215s.033-.022.044-.033c.32-.243.652-.442.972-.597a4.78 4.78 0 01.984-.354c.331-.077.674-.11 1.027-.11.873 0 1.636.177 2.276.541.63.354 1.15.83 1.536 1.426.387.575.663 1.248.84 2.022.166.74.254 1.536.254 2.354 0 .983-.11 1.878-.32 2.663-.221.806-.553 1.513-.984 2.088a4.49 4.49 0 01-1.657 1.37c-.641.32-1.392.475-2.221.475zm-3.525-2.364l.464.442c.144.132.288.265.42.375.287.232.564.431.84.575.276.155.563.265.862.331.287.067.607.1.95.1.74 0 1.403-.144 1.978-.42a4.03 4.03 0 001.459-1.204c.397-.53.696-1.172.895-1.912.198-.74.309-1.591.309-2.52 0-.773-.077-1.524-.243-2.232a5.486 5.486 0 00-.763-1.834 3.935 3.935 0 00-1.348-1.248c-.552-.31-1.226-.464-2-.464a3.873 3.873 0 00-1.768.409 6.02 6.02 0 00-.884.54 4.943 4.943 0 00-.464.388l-.464.408v-6.43a.267.267 0 00-.044-.166c-.033-.056-.088-.089-.166-.133a.846.846 0 00-.298-.066 4.755 4.755 0 00-.972 0 .973.973 0 00-.31.077c-.044.022-.121.056-.143.11a.305.305 0 00-.045.166v15.99a.37.37 0 00.033.165c0 .022.034.078.144.122a.924.924 0 00.276.066c.221.033.608.033.818 0a.916.916 0 00.276-.066.423.423 0 00.155-.11.267.267 0 00.044-.167v-1.292h-.011zm3.392.11a2.82 2.82 0 01-1.602-.52c-.475-.33-.983-.817-1.503-1.436l-.066-.077V23.32l.055-.078a7.88 7.88 0 01.829-.917c.265-.254.542-.475.796-.64.265-.166.519-.288.762-.365.718-.21 1.525-.11 2.044.254a2.7 2.7 0 01.829.961 4.6 4.6 0 01.442 1.381c.088.509.122 1.05.122 1.602a7.46 7.46 0 01-.155 1.492 4.98 4.98 0 01-.475 1.326 2.758 2.758 0 01-.862.95c-.354.244-.774.354-1.227.354l.011.011zm-2.618-2.232c.464.553.917.973 1.326 1.26.707.497 1.613.563 2.198.154.288-.187.509-.441.686-.762.187-.343.331-.74.419-1.171.089-.453.144-.917.144-1.381a9.69 9.69 0 00-.121-1.514c-.078-.453-.199-.862-.387-1.205a2.158 2.158 0 00-.663-.773c-.387-.276-1.006-.343-1.569-.177a2.759 2.759 0 00-.619.287 4.654 4.654 0 00-.718.586c-.221.21-.464.475-.718.785v3.9l.022.011zm19.734-7.889a1.1 1.1 0 00-.375-.089 5.431 5.431 0 00-1.039 0 1.452 1.452 0 00-.376.089.562.562 0 00-.287.232.55.55 0 00-.077.298v10.774c0 .121.033.22.088.309a.63.63 0 00.276.22c.1.045.232.078.376.09.133.01.309.021.508.021s.387 0 .52-.022c.154-.022.276-.044.375-.088a.731.731 0 00.266-.2.538.538 0 00.099-.33V20.06c0-.11-.033-.21-.099-.31a.704.704 0 00-.277-.22h.022z"/><path d="M125.6 31.75c-.221 0-.397 0-.541-.033a1.675 1.675 0 01-.464-.11.829.829 0 01-.531-.773V20.06c0-.155.045-.298.111-.431a.835.835 0 01.42-.354 1.6 1.6 0 01.453-.11 6.16 6.16 0 011.105 0c.188.022.331.055.453.11a.913.913 0 01.387.31.796.796 0 01.143.464v10.773a.859.859 0 01-.154.498.838.838 0 01-.376.287 1.6 1.6 0 01-.453.11 3.8 3.8 0 01-.553.034zm0-12.066c-.176 0-.353 0-.475.022-.132.011-.232.045-.309.067-.078.033-.133.066-.155.121a.361.361 0 00-.044.155v10.773c0 .067.011.122.044.155a.28.28 0 00.155.11c.077.034.177.056.309.078.265.033.718.033.973 0 .121-.011.232-.044.298-.066.077-.034.133-.067.155-.11a.267.267 0 00.044-.167V20.06a.254.254 0 00-.044-.155.459.459 0 00-.155-.121.923.923 0 00-.298-.067 6.077 6.077 0 00-.487-.022l-.011-.01zm.011-4.718c-.552 0-.928.11-1.16.332-.232.22-.342.596-.342 1.149 0 .552.11.906.342 1.127.232.21.597.32 1.138.32.542 0 .929-.11 1.161-.32.232-.221.353-.597.353-1.15 0-.552-.11-.905-.342-1.127-.232-.22-.597-.32-1.139-.32l-.011-.011z"/><path d="M125.578 18.17c-.618 0-1.049-.132-1.326-.397-.287-.277-.431-.707-.431-1.326 0-.62.144-1.061.431-1.348.288-.277.73-.41 1.359-.41.63 0 1.05.133 1.337.399.288.276.431.707.431 1.326 0 .618-.143 1.071-.442 1.348-.276.265-.718.397-1.348.397l-.011.012zm.033-2.928c-.464 0-.795.089-.972.254-.177.166-.265.487-.265.94 0 .453.088.762.254.928.166.166.486.243.95.243.464 0 .796-.088.973-.254.176-.166.265-.486.265-.95 0-.465-.089-.763-.254-.929-.166-.165-.486-.243-.951-.243v.011zm14.011-.939a1.1 1.1 0 00-.375-.088 5.431 5.431 0 00-1.039 0 1.452 1.452 0 00-.376.088.562.562 0 00-.287.232.563.563 0 00-.077.31v15.988a.57.57 0 00.088.31.63.63 0 00.276.22c.1.045.232.078.376.09.133.01.309.021.508.021s.387 0 .52-.022c.154-.022.276-.044.375-.088a.84.84 0 00.266-.2.539.539 0 00.099-.33v-15.99a.528.528 0 00-.099-.32.634.634 0 00-.277-.22h.022z"/><path d="M138.727 31.75c-.221 0-.397 0-.541-.033a1.7 1.7 0 01-.453-.11.882.882 0 01-.409-.332.81.81 0 01-.132-.453V14.845a.93.93 0 01.121-.454.845.845 0 01.409-.342c.133-.055.276-.088.453-.11a6.16 6.16 0 011.105 0c.177.021.32.055.453.11a.935.935 0 01.387.32.864.864 0 01.143.476v15.988a.86.86 0 01-.154.498.84.84 0 01-.376.287c-.133.055-.287.1-.464.11a3.802 3.802 0 01-.553.034l.011-.011zm0-17.292c-.176 0-.353 0-.486.022a.966.966 0 00-.309.077c-.044.022-.122.056-.144.11a.313.313 0 00-.044.166v15.99c0 .066.011.12.044.154a.363.363 0 00.155.122c.077.033.188.055.309.077.265.033.719.033.973 0a.736.736 0 00.298-.077.431.431 0 00.155-.11.267.267 0 00.044-.167V14.845a.267.267 0 00-.044-.166.407.407 0 00-.166-.122.998.998 0 00-.298-.066 6.077 6.077 0 00-.487-.022v-.011zm13.139.508c-.553 0-.929.11-1.161.332-.232.22-.342.596-.342 1.149 0 .552.11.906.342 1.127.232.21.597.32 1.138.32.542 0 .929-.11 1.161-.32.232-.221.353-.597.353-1.15 0-.552-.11-.905-.342-1.127-.232-.22-.597-.32-1.138-.32l-.011-.011z"/><path d="M151.832 18.17c-.618 0-1.049-.132-1.337-.397-.287-.277-.431-.707-.431-1.326 0-.62.144-1.061.431-1.348.288-.277.73-.41 1.36-.41.629 0 1.049.133 1.337.399.287.276.43.707.43 1.326 0 .618-.143 1.071-.442 1.348-.276.265-.718.397-1.348.397v.012zm.034-2.928c-.465 0-.796.089-.973.254-.177.166-.265.487-.265.94 0 .453.088.762.254.928.166.166.486.243.95.243.464 0 .796-.088.973-.254.177-.166.265-.486.265-.95 0-.465-.088-.763-.254-.929-.166-.165-.486-.243-.95-.243v.011zm.884 4.288a1.107 1.107 0 00-.376-.089 5.431 5.431 0 00-1.039 0 1.673 1.673 0 00-.387.089.611.611 0 00-.287.232.55.55 0 00-.077.298v10.774c0 .121.033.22.088.309a.63.63 0 00.276.22c.1.045.232.078.387.09.133.01.31.021.508.021.199 0 .387 0 .52-.022.155-.022.276-.044.376-.088a.736.736 0 00.265-.2.538.538 0 00.099-.33V20.06c0-.11-.033-.21-.099-.31a.704.704 0 00-.277-.22h.023z"/><path d="M151.843 31.75c-.221 0-.397 0-.541-.033a1.787 1.787 0 01-.464-.11.936.936 0 01-.409-.32.87.87 0 01-.121-.453V20.06c0-.155.044-.298.11-.431a.835.835 0 01.42-.354 1.6 1.6 0 01.453-.11 6.16 6.16 0 011.105 0c.188.022.331.055.453.11a.913.913 0 01.387.31.796.796 0 01.143.464v10.773a.859.859 0 01-.154.498.838.838 0 01-.376.287 1.6 1.6 0 01-.453.11 3.8 3.8 0 01-.553.034zm.012-12.066c-.177 0-.354 0-.476.022-.132.011-.232.045-.309.067-.077.033-.133.077-.155.121a.361.361 0 00-.044.155v10.773c0 .067.011.122.044.155a.283.283 0 00.155.11c.077.034.188.056.309.078.266.033.719.033.973 0 .121-.011.232-.044.298-.066.077-.034.133-.067.155-.11a.267.267 0 00.044-.167V20.06a.254.254 0 00-.044-.155.449.449 0 00-.155-.121.923.923 0 00-.298-.067 6.072 6.072 0 00-.486-.022l-.011-.01zm18.917 6.906a3.1 3.1 0 00-.674-.95 4.078 4.078 0 00-.94-.652 14.55 14.55 0 00-1.027-.464 96.407 96.407 0 01-1.006-.398 5.796 5.796 0 01-.828-.409 1.973 1.973 0 01-.553-.486 1.002 1.002 0 01-.188-.619c0-.187.033-.353.1-.508.066-.154.165-.287.298-.398a1.49 1.49 0 01.53-.265c.487-.143 1.227-.132 1.724.022.287.089.519.177.718.265.199.089.365.177.498.266.331.22.541.232.751.088a.57.57 0 00.188-.254.914.914 0 00.077-.32c.011-.111.022-.233.022-.387 0-.155 0-.265-.022-.365a.963.963 0 00-.044-.232.7.7 0 00-.088-.254.844.844 0 00-.244-.243 2.09 2.09 0 00-.408-.243 4.081 4.081 0 00-.641-.254 5.256 5.256 0 00-.818-.188c-1.005-.166-1.978-.067-2.718.199a4.11 4.11 0 00-1.315.751c-.354.32-.63.696-.807 1.116-.176.42-.265.862-.265 1.326 0 .52.089.972.254 1.348.166.376.398.696.674.972.277.266.586.498.928.675.321.176.674.331 1.017.475.343.132.674.265.995.386.298.122.574.255.817.398.232.144.409.299.542.486.121.155.176.354.176.597s-.044.464-.132.64a1.09 1.09 0 01-.376.432 1.99 1.99 0 01-.619.276c-.574.155-1.403.122-1.944-.055a5.725 5.725 0 01-1.459-.674c-.387-.243-.63-.254-.84-.122a.552.552 0 00-.21.276 1.575 1.575 0 00-.077.31c-.022.11-.022.254-.022.43 0 .277.022.498.066.664a.938.938 0 00.276.464c.111.1.266.199.476.31.198.11.453.21.74.309.287.1.619.177.972.232.354.066.741.088 1.149.088.641 0 1.249-.077 1.79-.232a4.384 4.384 0 001.437-.718c.409-.32.729-.718.95-1.183.221-.464.332-1.005.332-1.59 0-.498-.089-.94-.254-1.316l.022-.022z"/><path d="M166.529 31.905c-.42 0-.818-.033-1.194-.1a8.068 8.068 0 01-1.016-.242 5.44 5.44 0 01-.785-.32 3.041 3.041 0 01-.541-.354 1.248 1.248 0 01-.354-.597c-.055-.188-.077-.43-.077-.73 0-.187 0-.342.033-.463.022-.144.055-.266.088-.354a.803.803 0 01.321-.409c.431-.265.851-.055 1.138.11.166.1.353.21.597.332.22.11.486.221.806.32.508.166 1.271.189 1.79.045a1.68 1.68 0 00.531-.232.76.76 0 00.287-.332 1.18 1.18 0 00.099-.519.715.715 0 00-.121-.431 1.738 1.738 0 00-.464-.42 4.215 4.215 0 00-.774-.376l-.994-.386c-.365-.144-.719-.31-1.05-.486a4.647 4.647 0 01-.994-.719 3.535 3.535 0 01-.741-1.05c-.188-.408-.276-.905-.276-1.458 0-.497.099-.972.287-1.425a3.41 3.41 0 01.884-1.216 4.333 4.333 0 011.404-.806c.85-.299 1.856-.376 2.85-.221.31.055.586.121.851.198.265.089.486.177.685.277.199.1.343.188.453.276.144.11.243.22.31.331.055.1.099.221.121.343 0 .055.022.144.044.243.012.11.023.243.023.398 0 .154 0 .298-.023.42a2.02 2.02 0 01-.099.409.846.846 0 01-.276.364c-.42.288-.818.1-1.072-.077a3.276 3.276 0 00-.453-.243 4.768 4.768 0 00-.685-.254c-.453-.133-1.138-.144-1.569-.023a1.299 1.299 0 00-.431.21.8.8 0 00-.221.299.951.951 0 00-.078.398c0 .187.045.331.122.453.122.154.276.298.475.42.221.143.486.276.785.386.331.133.663.254 1.005.398.354.144.707.298 1.05.475a4.39 4.39 0 011.005.696c.31.288.553.641.741 1.028.188.409.287.895.287 1.425 0 .63-.121 1.205-.354 1.713a3.52 3.52 0 01-1.027 1.282 4.51 4.51 0 01-1.525.773 6.644 6.644 0 01-1.867.243l-.011-.022zm-3.083-3.16c-.067 0-.111.022-.133.044-.044.022-.077.078-.099.133a1.257 1.257 0 00-.056.254c-.011.1-.022.232-.022.387 0 .243.022.442.056.585a.79.79 0 00.187.343c.089.077.221.166.42.265.188.1.42.199.696.287.277.089.597.166.929.232.884.155 1.966.11 2.806-.132.52-.155.973-.376 1.337-.674.376-.288.663-.663.873-1.094.199-.431.31-.928.31-1.47 0-.453-.078-.862-.232-1.193a2.868 2.868 0 00-.619-.862 3.921 3.921 0 00-.884-.608c-.321-.166-.663-.32-1.006-.453a46.736 46.736 0 01-.994-.398 5.812 5.812 0 01-.873-.43 2.159 2.159 0 01-.619-.553c-.166-.21-.243-.464-.243-.785 0-.22.044-.43.121-.618.089-.2.21-.365.376-.497a1.88 1.88 0 01.63-.321c.53-.155 1.326-.155 1.89.022.298.088.541.177.762.276.21.1.387.188.519.277.299.198.376.143.453.088a.253.253 0 00.089-.133c.033-.066.044-.143.066-.243.022-.1.022-.22.022-.353 0-.133 0-.232-.022-.32a2.142 2.142 0 00-.033-.21.585.585 0 00-.055-.166c-.022-.045-.089-.1-.166-.166a3.123 3.123 0 00-.376-.221 3.044 3.044 0 00-.597-.232 4.984 4.984 0 00-.773-.177c-.906-.155-1.823-.077-2.575.188-.486.177-.906.409-1.226.696-.332.287-.575.63-.74 1.017a3.058 3.058 0 00-.244 1.215c0 .475.078.895.233 1.227.154.342.364.64.618.883.254.244.542.465.873.63.31.166.652.32.995.465l.983.386c.321.122.608.265.862.42.254.155.464.343.619.553.154.21.232.453.232.762 0 .31-.055.552-.166.762a1.42 1.42 0 01-.464.53 2.458 2.458 0 01-.707.321c-.608.155-1.492.133-2.1-.055a7.218 7.218 0 01-.895-.354 7.072 7.072 0 01-.629-.353c-.199-.122-.321-.166-.409-.166v-.01z"/></g><defs><clipPath id="clip0_1001_3"><path fill="#fff" transform="translate(62.871 13.905)" d="M0 0h108.442v18H0z"/></clipPath></defs></svg>