<svg width="171" height="44" fill="none" xmlns="http://www.w3.org/2000/svg"><g clip-path="url(#clip0_308_1452)" fill="#fff"><path d="M71.913 19.838a3.583 3.583 0 00-1.35-.999c-.549-.25-1.229-.369-2.019-.369h-1.339c-.79 0-1.47.13-2.019.37-.548.25-1.01.586-1.35.998a3.79 3.79 0 00-.735 1.466c-.142.543-.22 1.194-.22 1.943v6.254c0 .12.034.228.11.325a.769.769 0 00.275.196c.099.043.22.065.384.087.285.032.801.032 1.086 0 .165-.022.286-.044.384-.087a.547.547 0 00.384-.51v-6.004c0-.554.044-1.01.143-1.336.088-.325.22-.608.395-.836.165-.217.384-.39.637-.51.252-.108.537-.174.867-.184h.56c.361 0 .68.065.954.184.263.12.472.282.636.5.176.227.308.51.395.835.099.337.143.782.143 1.336V29.5c0 .12.033.228.11.325a.769.769 0 00.274.196c.099.043.22.065.384.087.143.01.318.021.549.021.23 0 .395 0 .537-.021a1.47 1.47 0 00.385-.087.548.548 0 00.384-.51v-6.254c0-.75-.077-1.4-.22-1.943a3.86 3.86 0 00-.735-1.466l.01-.01zm20.322-.282c-.46-.521-1.053-.923-1.734-1.206-.69-.27-1.492-.412-2.403-.412-.91 0-1.788.152-2.501.456a4.954 4.954 0 00-1.811 1.292 5.326 5.326 0 00-1.076 1.976 8.367 8.367 0 00-.35 2.464c0 .89.11 1.748.329 2.476a4.99 4.99 0 001.031 1.9c.46.52 1.053.922 1.745 1.205.68.271 1.492.412 2.403.412.91 0 1.778-.152 2.49-.466a5.015 5.015 0 001.811-1.303 5.506 5.506 0 001.087-1.976c.241-.75.362-1.575.362-2.465 0-.89-.11-1.737-.34-2.464a5.307 5.307 0 00-1.032-1.9l-.01.01zm-1.207 4.494c0 .587-.066 1.13-.186 1.618a3.44 3.44 0 01-.56 1.227c-.241.326-.56.586-.944.77-.384.185-.845.283-1.382.283-.582 0-1.076-.098-1.46-.304a2.436 2.436 0 01-.91-.814c-.23-.348-.395-.771-.505-1.238a7.99 7.99 0 01-.154-1.574c0-.554.066-1.119.187-1.607.12-.478.307-.89.56-1.227a2.49 2.49 0 01.932-.782c.384-.184.845-.282 1.383-.282.581 0 1.075.098 1.46.304.383.207.68.467.899.814.23.359.395.771.494 1.249a7.87 7.87 0 01.153 1.563h.033zm21.727-4.288a4.057 4.057 0 00-1.437-1.314c-.593-.325-1.306-.499-2.129-.499a4.71 4.71 0 00-.966.098 3.9 3.9 0 00-.921.325 5.386 5.386 0 00-.922.565c-.154.12-.318.25-.483.39v-5.699a.588.588 0 00-.088-.315.622.622 0 00-.274-.217 1.111 1.111 0 00-.373-.087 5.457 5.457 0 00-1.032 0 1.458 1.458 0 00-.373.087.559.559 0 00-.285.228.545.545 0 00-.077.304v15.71c0 .108.022.206.066.282a.485.485 0 00.285.239c.099.033.209.065.34.076.253.033.659.033.889 0a1.44 1.44 0 00.329-.087.543.543 0 00.275-.206.513.513 0 00.099-.315v-.64c.142.14.296.26.428.38.296.238.592.445.877.597.308.162.615.282.922.347.307.076.648.109 1.01.109.779 0 1.481-.152 2.085-.435a4.24 4.24 0 001.547-1.27c.417-.543.724-1.205.933-1.965.208-.75.318-1.607.318-2.551 0-.782-.088-1.542-.242-2.248a5.675 5.675 0 00-.79-1.889h-.011zm-1.547 4.365c0 .477-.044.955-.143 1.411a3.888 3.888 0 01-.449 1.227 2.4 2.4 0 01-.769.847c-.636.423-1.646.434-2.502-.152-.449-.315-.932-.771-1.437-1.368v-4.028c.285-.348.549-.64.79-.88.252-.238.505-.445.757-.608.242-.152.461-.26.681-.314.647-.185 1.349-.098 1.799.217.307.217.56.5.735.847.187.358.33.792.406 1.27.077.488.121 1.01.121 1.53h.011zm14.573-5.896a1.114 1.114 0 00-.374-.087 5.463 5.463 0 00-1.031 0 1.452 1.452 0 00-.373.087.55.55 0 00-.285.228.532.532 0 00-.077.294v10.585c0 .12.033.217.088.304a.617.617 0 00.274.217c.099.043.23.076.373.087.132.01.307.022.505.022.197 0 .384 0 .515-.022.154-.022.275-.044.374-.087a.727.727 0 00.263-.195.523.523 0 00.099-.326V18.753a.528.528 0 00-.099-.305.7.7 0 00-.274-.217h.022zm-.878-4.483c-.549 0-.922.108-1.153.325-.23.217-.34.586-.34 1.13 0 .542.11.89.34 1.107.231.206.593.315 1.131.315.537 0 .921-.109 1.152-.315.23-.217.351-.586.351-1.13 0-.542-.11-.89-.34-1.107-.231-.217-.593-.315-1.13-.315l-.011-.01zm13.914-.652a1.111 1.111 0 00-.373-.087 5.457 5.457 0 00-1.032 0 1.458 1.458 0 00-.373.087.555.555 0 00-.285.228.545.545 0 00-.077.304v15.71c0 .12.033.217.088.304a.623.623 0 00.274.217c.099.043.231.076.373.087.132.01.307.022.505.022.197 0 .384 0 .516-.022.153-.022.274-.044.373-.087a.826.826 0 00.263-.195.523.523 0 00.099-.326v-15.71a.512.512 0 00-.099-.315.622.622 0 00-.274-.217h.022zm12.158.652c-.549 0-.922.108-1.152.325-.23.217-.34.586-.34 1.13 0 .542.11.89.34 1.107.23.206.593.315 1.13.315.538 0 .922-.109 1.152-.315.231-.217.352-.586.352-1.13 0-.542-.11-.89-.341-1.107-.23-.217-.592-.315-1.13-.315l-.011-.01zm.878 4.483a1.107 1.107 0 00-.373-.087 5.473 5.473 0 00-1.032 0 1.688 1.688 0 00-.384.087.609.609 0 00-.285.228.532.532 0 00-.077.294v10.585c0 .12.033.217.088.304a.628.628 0 00.274.217c.099.043.231.076.384.087.132.01.308.022.505.022.198 0 .384 0 .516-.022.154-.022.274-.044.373-.087a.71.71 0 00.263-.195.523.523 0 00.099-.326V18.753a.528.528 0 00-.099-.305.686.686 0 00-.274-.217h.022zm17.897 6.938a3.032 3.032 0 00-.669-.934 4.038 4.038 0 00-.933-.64 14.504 14.504 0 00-1.02-.456c-.34-.13-.67-.26-.999-.391a5.822 5.822 0 01-.823-.402 1.94 1.94 0 01-.548-.477.98.98 0 01-.187-.608c0-.185.033-.348.099-.5a1.03 1.03 0 01.296-.39 1.46 1.46 0 01.527-.261c.483-.141 1.218-.13 1.712.021.285.087.515.174.713.261.197.087.362.174.494.26.329.218.537.229.746.087a.558.558 0 00.186-.25.885.885 0 00.077-.314c.011-.109.022-.228.022-.38s0-.26-.022-.358a.932.932 0 00-.044-.228.696.696 0 00-.087-.25.825.825 0 00-.242-.239 2.066 2.066 0 00-.406-.239 4.05 4.05 0 00-.636-.25 5.281 5.281 0 00-.812-.184c-.999-.163-1.965-.065-2.7.195a4.09 4.09 0 00-1.306.739 3.126 3.126 0 00-.801 1.096 3.303 3.303 0 00-.263 1.303c0 .51.088.955.252 1.325.165.369.395.683.67.955.274.26.581.488.921.662.319.174.67.326 1.01.467.34.13.669.26.988.38.296.12.57.25.812.39.23.142.406.294.537.479.121.151.176.347.176.586s-.044.456-.132.63a1.072 1.072 0 01-.373.423 1.98 1.98 0 01-.614.271c-.571.152-1.394.12-1.932-.054a5.627 5.627 0 01-1.448-.662c-.384-.24-.626-.25-.834-.12a.537.537 0 00-.209.272 1.534 1.534 0 00-.076.304c-.022.108-.022.25-.022.423 0 .272.022.489.065.651a.917.917 0 00.275.456c.11.098.263.196.472.305a5.699 5.699 0 001.701.532c.351.065.735.086 1.141.086.636 0 1.24-.076 1.777-.228a4.369 4.369 0 001.427-.705c.406-.315.724-.706.944-1.162.219-.456.329-.988.329-1.563a3.15 3.15 0 00-.253-1.292l.022-.022z"/></g><path d="M33.27 10.258c-.485-2.022-1.287-3.786-2.404-5.292-1.117-1.506-2.584-2.715-4.396-3.611C24.663.453 22.428 0 19.78 0h-5.562C11.572 0 9.337.453 7.53 1.355c-1.811.896-3.274 2.105-4.396 3.61C2.011 6.473 1.21 8.236.73 10.259.243 12.281 0 14.713 0 17.548v24.323c0 .24.058.434.175.6.116.16.31.302.573.419.267.117.632.204 1.103.268.471.058 1.059.088 1.768.088.71 0 1.34-.03 1.812-.088.471-.064.84-.151 1.103-.268.267-.122.456-.258.573-.42.116-.165.175-.36.175-.599V18.523c0-2.275.175-4.108.53-5.492.354-1.389.869-2.588 1.544-3.591a6.74 6.74 0 012.628-2.305c1.073-.532 2.317-.8 3.73-.8h2.566c1.413 0 2.657.268 3.73.8a6.74 6.74 0 012.628 2.305c.68 1.004 1.19 2.197 1.545 3.591.355 1.39.53 3.217.53 5.492v23.348c0 .24.058.434.174.6.117.16.311.302.573.419.268.117.632.204 1.103.268.471.058 1.074.088 1.812.088s1.297-.03 1.768-.088c.471-.064.84-.151 1.103-.268.267-.122.457-.258.573-.42a.999.999 0 00.175-.599V17.55c0-2.836-.243-5.268-.728-7.29h.004z" fill="#fff"/><defs><clipPath id="clip0_308_1452"><path fill="#fff" transform="translate(62.87 12.977)" d="M0 0h107.143v17.143H0z"/></clipPath></defs></svg>