<svg width="37" height="32" fill="none" xmlns="http://www.w3.org/2000/svg"><g clip-path="url(#clip0_597_1091)" fill="#E18A04"><path d="M35.318 10.03h-4.565a.718.718 0 100 1.433h3.787L23.03 22.9l-4.156-2.497-.029-.015a.452.452 0 00-.067-.033c-.024-.01-.044-.02-.068-.024l-.062-.014-.072-.015h-.14c-.024 0-.043.005-.067.01-.024 0-.048.01-.067.014a.25.25 0 00-.063.024l-.067.029-.029.014-4.233 2.445L2.46 11.462h3.786a.718.718 0 100-1.433H1.682A1.68 1.68 0 000 11.7v18.627C0 31.25.754 32 1.682 32h33.636c.928 0 1.682-.75 1.682-1.672V11.701c0-.921-.754-1.671-1.682-1.671zM18.49 21.846l14.498 8.721H3.398l15.097-8.721h-.005zm17.068-9.37v17.852c0 .034-.01.067-.019.096L24.3 23.666l11.26-11.19zM1.591 29.95a.608.608 0 00-.15.12V12.474l11.177 11.11L1.591 29.95z"/><path d="M9.37 15.522c.398 0 .72-.32.72-.716V1.433h16.818v13.373c0 .396.322.716.721.716.399 0 .72-.32.72-.716V.716A.718.718 0 0027.63 0H9.369c-.399 0-.72.32-.72.716v14.09c0 .396.321.716.72.716z"/><path d="M24.027 12.896H12.975a.717.717 0 10-.001 1.432h11.053a.718.718 0 100-1.432zm0-8.597H12.975a.717.717 0 10-.001 1.432h11.053a.718.718 0 100-1.432zm0 4.298H12.975a.717.717 0 10-.001 1.433h11.053a.718.718 0 100-1.433z"/></g><defs><clipPath id="clip0_597_1091"><path fill="#fff" d="M0 0h37v32H0z"/></clipPath></defs></svg>