<svg width="61" height="61" fill="none" xmlns="http://www.w3.org/2000/svg"><g clip-path="url(#clip0_308_1378)" fill="#B3E5FF"><path d="M30.5 32.406c-3.26 0-5.719-3.069-5.719-7.148 0-2.888.648-6.195 5.719-6.195 5.07 0 5.719 3.307 5.719 6.195 0 4.08-2.46 7.148-5.719 7.148zm0-11.437c-2.888 0-3.813 1.039-3.813 4.289 0 2.545 1.335 5.242 3.813 5.242s3.813-2.697 3.813-5.242c0-3.25-.925-4.29-3.813-4.29z"/><path d="M38.125 40.031h-15.25c-1.554 0-2.86-1.744-2.86-3.812v-2.46l7.15-4.088.943 1.658-6.196 3.536v1.354c0 1.163.668 1.906.954 1.906h15.25c.285 0 .953-.743.953-1.906v-1.354l-6.196-3.536.944-1.658 7.148 4.089v2.459c0 2.068-1.306 3.812-2.86 3.812h.02z"/><path d="M30.5 61C13.677 61 0 47.313 0 30.5 0 13.687 13.677 0 30.5 0S61 13.687 61 30.5C61 47.313 47.323 61 30.5 61zm0-59.094c-15.765 0-28.594 12.83-28.594 28.594 0 15.765 12.83 28.594 28.594 28.594 15.765 0 28.594-12.83 28.594-28.594 0-15.765-12.83-28.594-28.594-28.594z"/><path d="M6.558 24.076l-1.84-.496C7.835 11.943 18.433 3.813 30.5 3.813h.953V15.25h-1.906V5.738c-10.809.41-20.178 7.834-22.99 18.338z"/><path d="M30.5 16.594l-4.49-4.48 1.354-1.353 3.136 3.145 3.136-3.145 1.353 1.353-4.489 4.48zm0 40.594h-.953V45.75h1.906v9.512c10.809-.41 20.178-7.834 22.99-18.338l1.839.496C53.165 49.057 42.567 57.187 30.5 57.187z"/><path d="M33.636 50.24L30.5 47.093l-3.136 3.145-1.353-1.353 4.489-4.48 4.49 4.48-1.354 1.353zm23.552-18.787H45.75v-1.906h9.512c-.41-10.799-7.834-20.178-18.338-22.99l.496-1.839C49.057 7.835 57.187 18.433 57.187 30.5v.953z"/><path d="M48.886 34.99l-4.48-4.49 4.48-4.49 1.353 1.354-3.145 3.136 3.145 3.136-1.353 1.353zM23.58 56.282C11.943 53.165 3.813 42.567 3.813 30.5v-.953H15.25v1.906H5.738c.41 10.799 7.834 20.178 18.338 22.99l-.496 1.839z"/><path d="M12.114 34.99l-1.353-1.354 3.145-3.136-3.145-3.136 1.353-1.353 4.48 4.489-4.48 4.49z"/></g><defs><clipPath id="clip0_308_1378"><path fill="#fff" d="M0 0h61v61H0z"/></clipPath></defs></svg>