<svg width="37" height="37" fill="none" xmlns="http://www.w3.org/2000/svg"><g clip-path="url(#clip0_597_1112)"><path d="M26.069 37h-.02c-3.993 0-10.927-4.196-16.494-9.788C4.099 21.736-.01 14.716 0 10.932.005 8.492 5.455.278 8.28.014c.321-.045 2.254-.213 5.557 3.084C17.182 6.43 17.294 8.64 17.3 8.884a.76.76 0 01-.224.544l-4.93 4.912c.01.792 1.254 4.048 3.819 6.608 2.34 2.332 5.588 3.77 6.638 3.805l4.925-4.907a.78.78 0 01.637-.218c.107.015 2.626.355 5.746 3.47 3.12 3.113 3.095 5.307 3.08 5.536-.214 2.916-8.423 8.371-10.926 8.371L26.07 37zM8.525 1.509c-.03.005-.072.005-.102.01-1.606.101-6.888 7.29-6.893 9.382-.01 3.368 3.992 10.032 9.11 15.168 5.14 5.16 11.788 9.224 15.296 9.26l-.122.762v-.762c2.04 0 9.391-5.034 9.529-6.873 0 0 .046-1.676-2.575-4.287-2.08-2.073-3.783-2.748-4.486-2.951l-4.732 4.729c-.22.218-.52.325-.918.325-1.458 0-5.108-1.615-7.75-4.252-2.635-2.631-5.113-7.477-3.935-8.65l4.777-4.755C15.576 8 15 6.395 12.762 4.165c-2.54-2.53-3.972-2.661-4.232-2.661l-.005.005z" fill="#E18A04"/></g><defs><clipPath id="clip0_597_1112"><path fill="#fff" d="M0 0h37v37H0z"/></clipPath></defs></svg>