<svg width="73" height="83" fill="none" xmlns="http://www.w3.org/2000/svg"><g clip-path="url(#clip0_597_219)" fill="#E18A04"><path d="M20.857 41.5C9.36 41.5 0 32.188 0 20.75S9.36 0 20.857 0c11.498 0 20.857 9.312 20.857 20.75S32.354 41.5 20.857 41.5zm0-38.906c-10.063 0-18.25 8.144-18.25 18.156 0 10.012 8.187 18.156 18.25 18.156 10.064 0 18.25-8.144 18.25-18.156 0-10.012-8.186-18.156-18.25-18.156z"/><path d="M20.858 72.625c-3.598 0-6.518-2.905-6.518-6.484V40.203h2.607v25.938c0 2.14 1.76 3.89 3.91 3.89 2.152 0 3.911-1.75 3.911-3.89V40.203h2.608v25.938c0 3.579-2.92 6.484-6.518 6.484z"/><path d="M22.16 51.875h-2.607v2.594h2.607v-2.594zm0 5.188h-2.607v2.593h2.607v-2.593zm0 5.187h-2.607v2.594h2.607V62.25zM60.498 83H19.553v-7.781h2.607v5.187h37.269L70.392 69.5V10.375H41.713V7.781H73v62.782L60.498 83z"/><path d="M61.267 81.703H58.66V68.734h13.036v2.594H61.267v10.375zM31.285 31.125H10.428v-20.75H26.07v2.594H13.035V28.53h15.643v-7.78h2.607v10.375z"/><path d="M20.858 25.172l-4.837-4.798 1.852-1.842 2.985 2.983 8.2-8.17 1.85 1.841-10.05 9.986zm16.946 25.406h-7.822v-7.781h7.822v7.781zm-5.214-2.594h2.607v-2.593H32.59v2.593zm5.214 12.969h-7.822v-7.781h7.822v7.781zM32.59 58.36h2.607v-2.593H32.59v2.593zm5.214 12.968h-7.822v-7.781h7.822v7.781zm-5.214-2.594h2.607v-2.593H32.59v2.593zm32.588-25.937H40.41v2.594h24.768v-2.594zm0 5.187H40.41v2.594h24.768v-2.594zm0 5.188H40.41v2.594h24.768v-2.594zm0 5.188H40.41v2.593h24.768V58.36zM53.446 68.734H40.41v2.594h13.036v-2.594zm11.732-5.187H40.41v2.594h24.768v-2.594zm0-25.937H40.41v-2.594h22.16V24.64H44.32v-2.594h20.858v15.562zm.002-20.75h-2.608v2.593h2.607V16.86zm-5.215 0h-2.608v2.593h2.608V16.86zm-5.215 0h-2.607v2.593h2.607V16.86z"/></g><defs><clipPath id="clip0_597_219"><path fill="#fff" d="M0 0h73v83H0z"/></clipPath></defs></svg>