<svg width="44" height="50" fill="none" xmlns="http://www.w3.org/2000/svg"><g clip-path="url(#clip0_597_193)" fill="#fff"><path d="M12.571 25C5.641 25 0 19.39 0 12.5S5.641 0 12.571 0s12.572 5.61 12.572 12.5S19.5 25 12.57 25zm0-23.438c-6.065 0-11 4.907-11 10.938 0 6.031 4.935 10.938 11 10.938 6.066 0 11-4.907 11-10.938 0-6.031-4.934-10.938-11-10.938z"/><path d="M12.571 43.75c-2.168 0-3.928-1.75-3.928-3.906V24.219h1.571v15.625a2.357 2.357 0 004.714 0V24.219H16.5v15.625c0 2.156-1.76 3.906-3.929 3.906z"/><path d="M13.357 31.25h-1.572v1.563h1.572V31.25zm0 3.125h-1.572v1.563h1.572v-1.563zm0 3.125h-1.572v1.563h1.572V37.5zM36.464 50H11.785v-4.688h1.572v3.126H35.82l6.608-6.57V6.25H25.142V4.687H44v37.82L36.464 50z"/><path d="M36.929 49.219h-1.572v-7.813h7.858v1.563h-6.286v6.25zM18.857 18.75H6.285V6.25h9.429v1.563H7.857v9.375h9.428V12.5h1.572v6.25z"/><path d="M12.571 15.164l-2.915-2.89 1.116-1.11 1.8 1.797 4.941-4.922 1.116 1.11-6.058 6.015zm10.216 15.305h-4.715V25.78h4.715v4.688zm-3.143-1.563h1.571v-1.562h-1.571v1.562zm3.143 7.813h-4.715V32.03h4.715v4.688zm-3.143-1.563h1.571v-1.562h-1.571v1.562zm3.143 7.813h-4.715V38.28h4.715v4.688zm-3.143-1.563h1.571v-1.562h-1.571v1.562zm19.642-15.625H24.357v1.563h14.929V25.78zm0 3.125H24.357v1.563h14.929v-1.563zm0 3.125H24.357v1.563h14.929V32.03zm0 3.125H24.357v1.563h14.929v-1.563zm-7.071 6.25h-7.858v1.563h7.858v-1.563zm7.071-3.125H24.357v1.563h14.929V38.28zm0-15.625H24.357v-1.562h13.358v-6.25h-11V13.28h12.571v9.375zm0-12.5h-1.571v1.563h1.571v-1.563zm-3.142 0h-1.572v1.563h1.572v-1.563zm-3.144 0h-1.572v1.563h1.571v-1.563z"/></g><defs><clipPath id="clip0_597_193"><path fill="#fff" d="M0 0h44v50H0z"/></clipPath></defs></svg>