<svg width="76" height="83" fill="none" xmlns="http://www.w3.org/2000/svg"><g clip-path="url(#clip0_597_374)" fill="#E18A04"><path d="M48.482 46.688h-2.62v5.187h2.62v-5.188zm-18.344 0h-2.62v5.187h2.62v-5.188z"/><path d="M38 50.578c-2.608 0-6.854-1.232-8.649-2.84-1.022-.597-5.648-3.683-6.997-12.113l-1.39-1.374v-4.423h2.622v3.36l1.231 1.218.066.428c1.18 8.21 5.66 10.608 5.844 10.7l.328.233c.982.972 4.52 2.217 6.931 2.217 2.411 0 5.962-1.245 6.932-2.217l.144-.156.197-.09c.183-.091 4.651-2.49 5.844-10.7l.065-.428 1.232-1.219v-3.359h2.62v4.422l-1.388 1.375c-1.35 8.43-5.975 11.517-6.997 12.113-1.796 1.608-6.041 2.84-8.649 2.84l.013.013zM76 83h-2.62v-7.781c0-8.417-6.579-10.725-14.192-13.397-2.398-.843-4.874-1.712-7.141-2.801-1.599 4.318-8.072 8.416-14.047 8.416-5.975 0-12.448-4.098-14.047-8.416-2.267 1.102-4.743 1.958-7.141 2.801C9.199 64.494 2.62 66.802 2.62 75.219V83H0v-7.781c0-10.245 8.098-13.086 15.934-15.835 2.87-1.012 5.844-2.05 8.307-3.45a1.314 1.314 0 011.31 0 1.3 1.3 0 01.656 1.129c0 2.93 5.713 7.78 11.793 7.78 6.08 0 11.793-4.85 11.793-7.78a1.3 1.3 0 01.655-1.129 1.314 1.314 0 011.31 0c2.477 1.4 5.439 2.438 8.308 3.45C67.902 62.134 76 64.974 76 75.219V83z"/><path d="M38 59.656c-.236 0-.485-.065-.695-.194l-9.264-5.733-1.979 3.917-2.345-1.154 2.62-5.188c.17-.324.46-.57.813-.674.354-.09.734-.039 1.048.156l9.788 6.056 9.789-6.056a1.354 1.354 0 011.048-.156c.354.104.655.337.812.674l2.621 5.188-2.345 1.154-1.979-3.916-9.264 5.732c-.21.13-.459.194-.695.194H38z"/><path d="M39.31 58.36h-2.62v7.78h2.62v-7.78zm-23.586 3.89h-2.62V83h2.62V62.25zm5.242-2.594h-2.62V83h2.62V59.656zm36.69 0h-2.62V83h2.62V59.656zm5.24 2.594h-2.62V83h2.62V62.25zm-5.24-33.719h-39.31v-6.484c0-9.623 7.246-17.897 16.85-19.259l.368 2.568c-8.321 1.18-14.598 8.352-14.598 16.69v3.892h34.07v-3.891c0-8.339-6.277-15.51-14.598-16.69l.367-2.569c9.605 1.362 16.851 9.636 16.851 19.259v6.484z"/><path d="M19.656 25.938h-3.931v2.593h3.93v-2.593zm40.621 0h-3.931v2.593h3.93v-2.593zM38 23.344c-3.616 0-6.55-2.905-6.55-6.485 0-3.579 2.934-6.484 6.55-6.484 3.617 0 6.553 2.905 6.553 6.484 0 3.58-2.935 6.485-6.552 6.485zm0-10.375c-2.161 0-3.93 1.75-3.93 3.89S35.839 20.75 38 20.75c2.163 0 3.932-1.75 3.932-3.89s-1.769-3.891-3.931-3.891zm11.793 64.844H26.207v2.593h23.586v-2.594zm0-5.188H26.207v2.594h23.586v-2.594z"/><path d="M41.93 11.672h-2.62V2.594h-2.621v9.078h-2.62V0h7.861v11.672zm7.863 3.891h-2.621v2.593h2.62v-2.593zm-20.965 0h-2.621v2.593h2.62v-2.593z"/></g><defs><clipPath id="clip0_597_374"><path fill="#fff" d="M0 0h76v83H0z"/></clipPath></defs></svg>