<svg width="83" height="83" fill="none" xmlns="http://www.w3.org/2000/svg"><g clip-path="url(#clip0_597_299)" fill="#E18A04"><path d="M37.61 70.031h-2.594a5.186 5.186 0 015.187-5.187H54.47a2.601 2.601 0 002.593-2.594 2.601 2.601 0 00-2.593-2.594H42.563L28.298 54.47H16.859v-2.594h11.906l14.265 5.188h11.44a5.186 5.186 0 015.187 5.187 5.186 5.186 0 01-5.187 5.188H40.203a2.601 2.601 0 00-2.594 2.593z"/><path d="M48.296 83H45.17l-.207-.078-21.84-7.703h-4.967v-2.594h5.408l.208.078 21.84 7.703h2.048l31.942-16.613c.35-.402.791-1.09.791-1.543a2.604 2.604 0 00-2.412-2.594l-20.542 6.42-.779-2.477 21.14-6.55a5.186 5.186 0 015.187 5.188c0 1.777-1.504 3.333-1.673 3.515l-.324.233-32.707 17.002.013.013zM12.969 70.031h-2.594v2.594h2.594v-2.594zm-5.188 0H5.188v2.594H7.78v-2.594z"/><path d="M15.563 77.813H0v-2.594h15.563V51.875H0v-2.594h15.563a2.601 2.601 0 012.593 2.594v23.344a2.601 2.601 0 01-2.593 2.594zm32.421-29.829a5.186 5.186 0 01-5.187-5.187h2.594a2.601 2.601 0 002.593 2.594 2.601 2.601 0 002.594-2.594c0-.843-1.841-2.14-3.125-2.71-.779-.35-4.656-2.231-4.656-5.071s2.321-5.188 5.187-5.188a5.186 5.186 0 015.188 5.188h-2.594a2.601 2.601 0 00-2.594-2.594 2.601 2.601 0 00-2.593 2.594c0 .843 1.841 2.14 3.125 2.71.778.35 4.656 2.23 4.656 5.07 0 2.841-2.322 5.188-5.188 5.188z"/><path d="M49.281 27.234h-2.593v3.891h2.593v-3.89zm0 19.454h-2.593v3.89h2.593v-3.89zm9.079-9.078h-2.594v2.593h2.593V37.61zm-18.157 0H37.61v2.593h2.594V37.61zm12.97-22.047H42.798a1.28 1.28 0 01-1.154-.714L36.456 4.474a1.288 1.288 0 01.584-1.737L42.214.143a1.291 1.291 0 011.154 0l4.604 2.308L52.576.143a1.291 1.291 0 011.154 0l5.188 2.594a1.31 1.31 0 01.584 1.737L54.313 14.85c-.22.441-.674.714-1.154.714h.013zm-9.571-2.594h8.767l4.253-8.495-3.45-1.725-4.603 2.309a1.291 1.291 0 01-1.154 0L42.81 2.749l-3.45 1.725 4.254 8.495h-.013zm29.023 44.094h-2.594V46.687c0-21.54-13.293-25.937-16.86-25.937v-2.594c4.112 0 19.454 4.838 19.454 28.532v10.374zm-46.687-7.782h-2.594v-2.593c0-28.208 19.258-28.532 19.453-28.532v2.594c-.169 0-16.86.298-16.86 25.938v2.593z"/><path d="M53.172 20.75H42.797c-2.14 0-3.89-1.75-3.89-3.89s1.75-3.891 3.89-3.891h10.375c2.14 0 3.89 1.75 3.89 3.89s-1.75 3.891-3.89 3.891zm-10.375-5.188A1.3 1.3 0 0041.5 16.86a1.3 1.3 0 001.297 1.297h10.375a1.3 1.3 0 001.297-1.297 1.3 1.3 0 00-1.297-1.297H42.797z"/></g><defs><clipPath id="clip0_597_299"><path fill="#fff" d="M0 0h83v83H0z"/></clipPath></defs></svg>