<svg width="48" height="50" fill="none" xmlns="http://www.w3.org/2000/svg"><g clip-path="url(#clip0_597_89)" fill="#fff"><path d="M21.676 31.25h-4.645v1.563h4.645V31.25zm6.194-25H17.031v1.563H27.87V6.25zm0 3.125H17.031v1.563H27.87V9.374zm0 3.125H10.838v1.563H27.87V12.5zm0 3.125H10.838v1.563H27.87v-1.563zm.001 3.125H13.936v1.563H27.87V18.75zm0 3.125H13.936v1.563H27.87v-1.563zm0 3.125H13.936v1.563H27.87V25zM15.483 10.938h-4.645V6.25h4.645v4.688zm-3.097-1.563h1.549V7.812h-1.549v1.563zm17.032 25H13.16v1.563h16.258v-1.563z"/><path d="M32.516 25h-1.548V1.562H7.742v15.626H6.193V1.563C6.193.703 6.89 0 7.742 0h23.226a1.56 1.56 0 011.548 1.563V25zM4.645 42.969H3.097V40.75L.039 31.5a.79.79 0 010-.5l2.376-7.031a.798.798 0 01.333-.414l3.84-2.344.806 1.336-3.6 2.195-2.2 6.516 3.012 9.125a.888.888 0 01.04.25v2.344-.008z"/><path d="M13.936 42.969h-1.548v-9.29l-1.549-7.117v-4.687c0-.89-.635-1.563-1.478-1.563-.844 0-1.618.72-1.618 1.563v6.36l-.782 5.468-1.533-.219.766-5.414v-6.195c0-1.695 1.456-3.125 3.167-3.125 1.71 0 3.027 1.375 3.027 3.125v4.602l1.548 7.117v9.375zm-1.55 2.344h-1.548v1.562h1.548v-1.563zm23.227-13.282h-1.548V20.313c0-1.29 1.045-2.344 2.322-2.344 1.277 0 2.323 1.054 2.323 2.343V25h-1.55v-4.688a.78.78 0 00-.774-.78.78.78 0 00-.774.78v11.72zm6.192-5.468h-1.548V25a.78.78 0 00-.775-.781v-1.563c1.278 0 2.323 1.055 2.323 2.344v1.563zm3.098 1.562h-1.549v-1.563a.78.78 0 00-.774-.78v-1.563c1.278 0 2.323 1.054 2.323 2.343v1.563zm.774 14.844H44.13l.03-1.79 2.293-7.702v-5.352a.78.78 0 00-.775-.781V25.78c1.278 0 2.323 1.055 2.323 2.344l-.031 5.695-2.292 7.703v1.446z"/><path d="M38.709 20.313H37.16v9.375h1.549v-9.375zm3.097 6.25h-1.548v3.125h1.548v-3.125zm3.096 1.562h-1.549v1.563h1.549v-1.563zm-8.516 14.844h-1.548v-2.867l-2.238-3.04-1.633-3.289v-4.875c0-1.273 1.1-2.343 2.392-2.343h1.479v1.562h-1.479c-.441 0-.844.375-.844.781v4.5l1.432 2.899 2.44 3.281v3.391zm2.324 2.344h-1.548v1.562h1.549v-1.563zm-1.548-32.032h-1.549v1.563h1.549V13.28zm0-3.125h-1.549v1.563h1.549v-1.563zm0-3.125h-1.549v1.563h1.549V7.03z"/><path d="M46.452 50h-1.549v-6.25h-9.29V50h-1.548v-6.25c0-.86.696-1.563 1.548-1.563h9.29a1.56 1.56 0 011.549 1.563V50zm-30.967 0h-1.549v-6.25h-9.29V50H3.098v-6.25c0-.86.696-1.563 1.548-1.563h9.29a1.56 1.56 0 011.549 1.563V50z"/></g><defs><clipPath id="clip0_597_89"><path fill="#fff" d="M0 0h48v50H0z"/></clipPath></defs></svg>