<svg width="45" height="50" fill="none" xmlns="http://www.w3.org/2000/svg"><g clip-path="url(#clip0_597_137)" fill="#4F4F4F"><path d="M28.706 28.125h-1.552v3.125h1.552v-3.125zm-10.861 0h-1.552v3.125h1.552v-3.125z"/><path d="M22.5 30.469c-1.544 0-4.058-.742-5.12-1.711-.606-.36-3.344-2.219-4.143-7.297l-.823-.828v-2.664h1.552v2.023l.73.735.038.257c.698 4.946 3.352 6.391 3.46 6.446l.194.14c.582.586 2.677 1.336 4.104 1.336 1.428 0 3.53-.75 4.105-1.336l.085-.093.117-.055c.108-.055 2.754-1.5 3.46-6.445l.039-.258.729-.735v-2.023h1.552v2.664l-.823.828c-.799 5.078-3.538 6.938-4.143 7.297-1.063.969-3.576 1.71-5.12 1.71l.007.009zM45 50h-1.552v-4.688c0-5.07-3.895-6.46-8.402-8.07-1.42-.508-2.886-1.031-4.229-1.687-.946 2.601-4.78 5.07-8.317 5.07-3.538 0-7.37-2.469-8.317-5.07-1.342.664-2.809 1.18-4.229 1.687-4.507 1.61-8.402 3-8.402 8.07V50H0v-4.688c0-6.171 4.795-7.882 9.434-9.539 1.7-.609 3.46-1.234 4.92-2.078.24-.14.535-.14.775 0s.388.399.388.68c0 1.766 3.383 4.688 6.983 4.688 3.6 0 6.983-2.922 6.983-4.688 0-.281.147-.54.388-.68a.77.77 0 01.776 0c1.466.844 3.22 1.47 4.919 2.078C40.206 37.43 45 39.141 45 45.313V50z"/><path d="M22.5 35.938a.782.782 0 01-.411-.118l-5.486-3.453-1.171 2.36-1.389-.696 1.552-3.125a.802.802 0 01.48-.406.79.79 0 01.621.094l5.796 3.648 5.796-3.648a.758.758 0 011.102.313l1.551 3.124-1.389.696-1.171-2.36-5.485 3.453a.783.783 0 01-.412.117h.016z"/><path d="M23.276 35.156h-1.551v4.688h1.551v-4.688zM9.31 37.5H7.758V50H9.31V37.5zm3.103-1.562h-1.552V50h1.552V35.937zm21.725 0h-1.552V50h1.552V35.937zm3.103 1.562H35.69V50h1.551V37.5zm-3.104-20.312H10.861V13.28c0-5.797 4.29-10.781 9.978-11.601l.217 1.547c-4.927.71-8.643 5.03-8.643 10.054v2.344h20.173V13.28c0-5.023-3.717-9.344-8.644-10.054l.218-1.547c5.687.82 9.977 5.804 9.977 11.601v3.906z"/><path d="M11.638 15.625H9.311v1.563h2.327v-1.563zm24.051 0H33.36v1.563h2.328v-1.563zM22.5 14.063c-2.141 0-3.879-1.75-3.879-3.907 0-2.156 1.738-3.906 3.88-3.906 2.14 0 3.879 1.75 3.879 3.906s-1.738 3.906-3.88 3.906zm0-6.25a2.343 2.343 0 00-2.327 2.343A2.343 2.343 0 0022.5 12.5a2.343 2.343 0 002.328-2.344A2.343 2.343 0 0022.5 7.812zm6.983 39.062H15.518v1.563h13.965v-1.563zm0-3.125H15.518v1.563h13.965V43.75z"/><path d="M24.827 7.031h-1.552V1.563h-1.551V7.03h-1.552V0h4.655v7.031zm4.656 2.344h-1.551v1.563h1.551V9.374zm-12.413 0h-1.552v1.563h1.551V9.374z"/></g><defs><clipPath id="clip0_597_137"><path fill="#fff" d="M0 0h45v50H0z"/></clipPath></defs></svg>