<svg width="80" height="83" fill="none" xmlns="http://www.w3.org/2000/svg"><g clip-path="url(#clip0_597_255)" fill="#E18A04"><path d="M36.129 51.875h-7.742v2.594h7.742v-2.594zm10.322-41.5H28.387v2.594H46.45v-2.594zm0 5.188H28.387v2.593H46.45v-2.593zm.001 5.187H18.065v2.594h28.387V20.75zm0 5.188H18.065v2.593h28.387v-2.593zm-.002 5.187H23.225v2.594H46.45v-2.594zm0 5.188H23.225v2.593H46.45v-2.593zm0 5.187H23.225v2.594H46.45V41.5zM25.806 18.156h-7.742v-7.781h7.742v7.781zm-5.16-2.593h2.58v-2.594h-2.58v2.594zm28.386 41.5H21.936v2.593h27.096v-2.593z"/><path d="M54.193 41.5h-2.58V2.594h-38.71V28.53h-2.58V2.594A2.595 2.595 0 0112.902 0h38.71a2.594 2.594 0 012.58 2.594V41.5zM7.741 71.328h-2.58v-3.683L.064 52.29a1.305 1.305 0 010-.83l3.961-11.672c.103-.285.297-.531.555-.687l6.4-3.89 1.342 2.217-6 3.644-3.665 10.816 5.02 15.148c.038.13.064.272.064.415v3.89-.013z"/><path d="M23.226 71.328h-2.581v-15.42l-2.58-11.814v-7.782c0-1.478-1.059-2.593-2.465-2.593-1.407 0-2.697 1.193-2.697 2.593V46.87L11.6 55.947l-2.555-.363 1.277-8.987V36.312c0-2.814 2.426-5.187 5.278-5.187 2.851 0 5.045 2.282 5.045 5.188v7.638l2.58 11.815v15.562zm-2.581 3.891h-2.58v2.594h2.58v-2.594zm38.711-22.047h-2.58V33.719c0-2.14 1.741-3.89 3.87-3.89 2.13 0 3.871 1.75 3.871 3.89V41.5h-2.58v-7.781c0-.714-.581-1.297-1.29-1.297-.71 0-1.291.584-1.291 1.297v19.453zm10.322-9.078h-2.581V41.5c0-.713-.58-1.297-1.29-1.297V37.61c2.129 0 3.87 1.751 3.87 3.891v2.594zm5.162 2.594h-2.58v-2.594c0-.714-.582-1.297-1.291-1.297v-2.594c2.129 0 3.87 1.75 3.87 3.89v2.594zm1.29 24.64h-2.581l.051-2.97 3.82-12.787v-8.883c0-.714-.58-1.297-1.29-1.297v-2.594c2.129 0 3.87 1.75 3.87 3.89l-.051 9.455-3.82 12.787v2.4z"/><path d="M64.516 33.719h-2.58V49.28h2.58V33.72zm5.162 10.375h-2.58v5.187h2.58v-5.187zm5.16 2.594h-2.58v2.593h2.58v-2.593zm-14.193 24.64h-2.58v-4.76l-3.73-5.044-2.722-5.46V47.97c0-2.113 1.833-3.89 3.987-3.89h2.465v2.594H55.6c-.735 0-1.406.622-1.406 1.296v7.47l2.387 4.812 4.064 5.447v5.628zm3.871 3.891h-2.58v2.594h2.58v-2.594zm-2.58-53.172h-2.58v2.594h2.58v-2.594zm0-5.187h-2.58v2.593h2.58V16.86zm0-5.188h-2.58v2.594h2.58v-2.594z"/><path d="M77.419 83h-2.581V72.625H59.354V83h-2.58V72.625a2.595 2.595 0 012.58-2.594h15.484c1.42 0 2.58 1.167 2.58 2.594V83zm-51.612 0h-2.58V72.625H7.743V83h-2.58V72.625a2.595 2.595 0 012.58-2.594h15.484a2.594 2.594 0 012.58 2.594V83z"/></g><defs><clipPath id="clip0_597_255"><path fill="#fff" d="M0 0h80v83H0z"/></clipPath></defs></svg>