<svg width="50" height="50" fill="none" xmlns="http://www.w3.org/2000/svg"><g clip-path="url(#clip0_597_121)" fill="#fff"><path d="M22.656 42.188h-1.562a3.124 3.124 0 013.125-3.126h8.593c.86 0 1.563-.703 1.563-1.562 0-.86-.703-1.563-1.563-1.563h-7.171l-8.594-3.124h-6.89V31.25h7.171l8.594 3.125h6.89a3.124 3.124 0 110 6.25H24.22c-.86 0-1.563.703-1.563 1.563z"/><path d="M29.094 50H27.21l-.125-.047-13.156-4.64h-2.992V43.75h3.257l.125.047 13.157 4.64h1.234L47.953 38.43c.211-.242.477-.657.477-.93 0-.828-.64-1.5-1.453-1.563l-12.375 3.868-.47-1.492 12.735-3.946a3.124 3.124 0 013.125 3.125c0 1.07-.906 2.008-1.008 2.117l-.195.141-19.703 10.242.008.008zM7.813 42.188H6.25v1.562h1.563v-1.563zm-3.125 0H3.125v1.562h1.563v-1.563z"/><path d="M9.375 46.875H0v-1.563h9.375V31.25H0v-1.563h9.375c.86 0 1.563.704 1.563 1.563v14.063c0 .859-.704 1.562-1.563 1.562zm19.531-17.969a3.124 3.124 0 01-3.125-3.125h1.563c0 .86.703 1.563 1.562 1.563.86 0 1.563-.703 1.563-1.563 0-.508-1.11-1.289-1.883-1.633-.469-.21-2.805-1.343-2.805-3.054a3.134 3.134 0 013.125-3.125 3.124 3.124 0 013.125 3.125H30.47c0-.86-.703-1.563-1.563-1.563s-1.562.703-1.562 1.563c0 .508 1.11 1.289 1.883 1.633.468.21 2.804 1.343 2.804 3.054a3.134 3.134 0 01-3.125 3.125z"/><path d="M29.688 16.406h-1.563v2.344h1.563v-2.344zm0 11.719h-1.563v2.344h1.563v-2.344zm5.468-5.469h-1.562v1.563h1.562v-1.563zm-10.937 0h-1.563v1.563h1.563v-1.563zm7.812-13.281h-6.25a.772.772 0 01-.695-.43l-3.125-6.25a.776.776 0 01.352-1.047L25.43.086a.778.778 0 01.695 0l2.773 1.39 2.774-1.39a.778.778 0 01.695 0l3.125 1.562a.79.79 0 01.352 1.047l-3.125 6.25a.78.78 0 01-.696.43h.008zm-5.765-1.563h5.281l2.562-5.117-2.078-1.039-2.773 1.39a.778.778 0 01-.695 0l-2.774-1.39-2.078 1.04 2.563 5.117h-.008zM43.75 34.375h-1.563v-6.25c0-12.977-8.007-15.625-10.156-15.625v-1.563c2.477 0 11.719 2.915 11.719 17.188v6.25zm-28.125-4.687h-1.563v-1.563c0-16.992 11.602-17.188 11.72-17.188V12.5c-.102 0-10.157.18-10.157 15.625v1.563z"/><path d="M32.031 12.5h-6.25a2.35 2.35 0 01-2.343-2.344 2.35 2.35 0 012.343-2.344h6.25a2.35 2.35 0 012.344 2.344 2.35 2.35 0 01-2.344 2.344zm-6.25-3.125a.784.784 0 00-.781.781c0 .43.352.781.781.781h6.25c.43 0 .782-.351.782-.78a.784.784 0 00-.782-.782h-6.25z"/></g><defs><clipPath id="clip0_597_121"><path fill="#fff" d="M0 0h50v50H0z"/></clipPath></defs></svg>