<svg width="37" height="37" fill="none" xmlns="http://www.w3.org/2000/svg"><g clip-path="url(#clip0_597_1097)" fill="#E18A04"><path d="M18.503 30.573a.624.624 0 00-.624.625v1.664a.624.624 0 101.249 0v-1.665a.623.623 0 00-.625-.624zm0-24.142a.623.623 0 00.625-.624V4.142a.623.623 0 10-1.25 0v1.665c0 .345.28.624.625.624zM6.43 18.502a.624.624 0 00-.625-.624H4.14a.624.624 0 100 1.248h1.665a.624.624 0 00.624-.624zm26.434-.624h-1.665a.624.624 0 100 1.248h1.665a.624.624 0 100-1.248zM30.5 25.241a.624.624 0 10.882 0 .644.644 0 00-.882 0zM5.625 10.88a.631.631 0 00-.184.442.63.63 0 00.184.441.631.631 0 00.44.183.624.624 0 00.441-1.066.644.644 0 00-.881 0zm5.257 19.618a.631.631 0 00-.183.441.624.624 0 101.066-.441.644.644 0 00-.883 0zM25.683 6.69a.624.624 0 00.441-1.066.644.644 0 00-.882 0 .631.631 0 00-.183.44.624.624 0 00.624.624zm-.441 23.808a.624.624 0 10.882 0 .644.644 0 00-.882 0zM10.882 5.623a.63.63 0 00-.183.442.63.63 0 00.183.44.631.631 0 00.442.184.624.624 0 00.441-1.066.644.644 0 00-.883 0zM5.625 25.241a.624.624 0 10.882 0 .644.644 0 00-.882 0zM30.94 11.946a.631.631 0 00.442-.183.631.631 0 00.183-.441.631.631 0 00-.183-.441.65.65 0 00-.887 0 .631.631 0 00.004.883.624.624 0 00.442.182z"/><path d="M18.502 0C8.3 0 0 8.3 0 18.502c0 10.202 8.3 18.502 18.502 18.502 10.202 0 18.502-8.3 18.502-18.502C37.004 8.3 28.704 0 18.502 0zm0 35.751c-9.511 0-17.253-7.738-17.253-17.253s7.738-17.25 17.253-17.25 17.253 7.739 17.253 17.254-7.738 17.253-17.253 17.253v-.004z"/><path d="M26.203 17.878h-4.995a.6.6 0 00-.258.058 2.523 2.523 0 00-1.823-1.865V9.137a.624.624 0 10-1.249 0v6.934a2.513 2.513 0 00-1.89 2.431 2.517 2.517 0 002.514 2.514c1.19 0 2.19-.832 2.448-1.948a.591.591 0 00.258.058h4.995a.623.623 0 100-1.248zm-7.7 1.89a1.265 1.265 0 11-.002-2.53 1.265 1.265 0 01.001 2.53z"/></g><defs><clipPath id="clip0_597_1097"><path fill="#fff" d="M0 0h37v37H0z"/></clipPath></defs></svg>