<svg width="48" height="48" fill="none" xmlns="http://www.w3.org/2000/svg"><g opacity=".5" clip-path="url(#clip0_908_1141)" fill="#0060A9"><path d="M19.5 36H3v1.5h16.5V36zm-9-3H3v1.5h7.5V33zm9 0H12v1.5h7.5V33zm-9-3H3v1.5h7.5V30zm9 0H12v1.5h7.5V30zm-9-3H3v1.5h7.5V27zm9 0H12v1.5h7.5V27zm-9-3H3v1.5h7.5V24zm9 0H12v1.5h7.5V24zm0-3H3v1.5h16.5V21zm-9-3H3v1.5h7.5V18zm9 0H12v1.5h7.5V18zm-9-3H3v1.5h7.5V15zm9 0H12v1.5h7.5V15zM48 48h-3.75v-1.5h2.25v-30h-8.25V15H48v33zM30.75 15h-9v1.5h9V15z"/><path d="M45 48H3v-9h42v9zM4.5 46.5h39v-6h-39v6z"/><path d="M15 42h-1.5v5.25H15V42zm19.5 0H33v5.25h1.5V42z"/><path d="M44.25 43.5H3.75V45h40.5v-1.5zM10.5 7.5H9v6h1.5v-6zm3 0H12v6h1.5v-6z"/><path d="M12.75 9.75h-3v1.5h3v-1.5zm-5.25 0H6v1.5h1.5v-1.5zm9 0H15v1.5h1.5v-1.5zm20.25 6.75h-4.5v-3h-3V9h3V6h4.5v3h3v4.5h-3v3zm-3-1.5h1.5v-3h3v-1.5h-3v-3h-1.5v3h-3V12h3v3zM30 22.5h-6V18h6v4.5zM25.5 21h3v-1.5h-3V21zm12 1.5h-6V18h6v4.5zM33 21h3v-1.5h-3V21zm12 1.5h-6V18h6v4.5zM40.5 21h3v-1.5h-3V21zM30 28.5h-6V24h6v4.5zM25.5 27h3v-1.5h-3V27zm12 1.5h-6V24h6v4.5zM33 27h3v-1.5h-3V27zm12 1.5h-6V24h6v4.5zM40.5 27h3v-1.5h-3V27zM30 34.5h-6V30h6v4.5zM25.5 33h3v-1.5h-3V33zm12 1.5h-6V30h6v4.5zM33 33h3v-1.5h-3V33zm12 1.5h-6V30h6v4.5zM40.5 33h3v-1.5h-3V33zm6.75 3H24v1.5h23.25V36z"/><path d="M3.75 48H0V4.5h22.5v33H21V6H1.5v40.5h2.25V48z"/><path d="M21 6H1.5V1.5H21V6zM3 4.5h16.5V3H3v1.5z"/><path d="M6 0H4.5v2.25H6V0zm12 0h-1.5v2.25H18V0z"/></g><defs><clipPath id="clip0_908_1141"><path fill="#fff" d="M0 0h48v48H0z"/></clipPath></defs></svg>