<svg width="48" height="48" fill="none" xmlns="http://www.w3.org/2000/svg"><g opacity=".6" clip-path="url(#clip0_908_1193)" fill="#0060A9"><path d="M24 9c-2.649 0-4.8-2.018-4.8-4.5S21.35 0 24 0c2.647 0 4.8 2.018 4.8 4.5S26.646 9 24 9zm0-7.5c-1.769 0-3.2 1.342-3.2 3 0 1.657 1.431 3 3.2 3 1.767 0 3.2-1.343 3.2-3 0-1.658-1.433-3-3.2-3zm16 33h-1.6V48H40V34.5zm-.8-21c-2.209 0-4-1.68-4-3.75 0-2.07 1.791-3.75 4-3.75 2.207 0 4 1.68 4 3.75 0 2.07-1.793 3.75-4 3.75zm0-6c-1.32 0-2.4 1.012-2.4 2.25S37.88 12 39.2 12c1.32 0 2.4-1.012 2.4-2.25S40.52 7.5 39.2 7.5zm-4 40.5h-1.6V33H32v-1.5h3.2V48z"/><path d="M44.8 48h-1.6V31.5h3.2v-12c0-1.657-1.433-3-3.2-3h-8V15h8c2.647 0 4.8 2.017 4.8 4.5V33h-3.2v15z"/><path d="M40 18h-1.6v1.5H40V18zM9.6 34.5H8V48h1.6V34.5zM14.4 48h-1.6V31.5H16V33h-1.6v15z"/><path d="M4.8 48H3.2V33H0V19.5C0 17.017 2.152 15 4.8 15h8v1.5h-8c-1.768 0-3.2 1.343-3.2 3v12h3.2V48z"/><path d="M9.6 18H8v1.5h1.6V18zm-.8-4.5c-2.207 0-4-1.68-4-3.75C4.8 7.68 6.594 6 8.8 6c2.209 0 4 1.68 4 3.75 0 2.07-1.791 3.75-4 3.75zm0-6c-1.32 0-2.4 1.012-2.4 2.25S7.48 12 8.8 12c1.32 0 2.4-1.012 2.4-2.25S10.12 7.5 8.8 7.5zM30.4 48h-1.6V28.5H32V15.75c0-2.07-1.792-3.75-4-3.75h-8c-2.208 0-4 1.68-4 3.75V28.5h3.2V48h-1.6V30h-3.2V15.75c0-2.895 2.512-5.25 5.6-5.25h8c3.088 0 5.6 2.355 5.6 5.25V30h-3.2v18z"/><path d="M24.8 31.5h-1.6V48h1.6V31.5zM24 17.25a.849.849 0 01-.569-.218l-4-3.75a.72.72 0 01-.232-.532v-3h1.6v2.693l3.2 3 3.2-3V9.75h1.6v3a.75.75 0 01-.232.533l-4 3.75a.814.814 0 01-.568.217z"/><path d="M24.8 16.5h-1.6v5.25h1.6V16.5z"/><path d="M24 23.25c.884 0 1.6-.672 1.6-1.5s-.716-1.5-1.6-1.5c-.883 0-1.6.672-1.6 1.5s.717 1.5 1.6 1.5z"/></g><defs><clipPath id="clip0_908_1193"><path fill="#fff" d="M0 0h48v48H0z"/></clipPath></defs></svg>